<svg xmlns="http://www.w3.org/2000/svg" xmlns:xlink="http://www.w3.org/1999/xlink" version="1.1" x="0px" y="0px" viewBox="0 0 100 125" enable-background="new 0 0 100 100" xml:space="preserve">
	<g display="none"><rect x="-660.877" y="-397.172" display="inline" fill="#47525d" width="1370.931" height="1263.231"/></g>
	<g><polygon points="28.009,32.297 31.262,29.127 35.787,28.723 33.777,24.649 34.79,20.221 30.295,20.874 26.397,18.542    25.629,23.019 22.206,26.005 26.226,28.12  " fill="#47525d"/>
	<polygon points="68.738,29.127 71.991,32.297 73.774,28.12 77.794,26.005 74.371,23.019 73.603,18.542 69.705,20.874 65.21,20.221    66.223,24.649 64.213,28.723  " fill="#47525d"/>
	<polygon points="45.72,26.909 50,25.387 54.28,26.909 54.155,22.368 56.925,18.768 52.568,17.484 50,13.737 47.432,17.484    43.075,18.768 45.845,22.368  " fill="#47525d"/>
	<path d="M38.461,75.766c0-0.15,0.015-0.296,0.023-0.445c-0.156,0.014-0.313,0.021-0.469,0.021c-0.97,0-1.947-0.277-2.793-0.88   l-11.907-8.49c-2.469-1.76-2.799-5.444-0.414-7.604c0.893-0.809,2.033-1.203,3.185-1.203c1.053,0,2.117,0.329,3.015,0.968   l11.777,8.398c0.721,0.514,1.24,1.2,1.582,1.957c1.348-0.868,2.945-1.378,4.658-1.378h5.438c1.713,0,3.31,0.511,4.658,1.378   c0.342-0.756,0.861-1.443,1.582-1.957l11.777-8.398c0.897-0.64,1.961-0.968,3.015-0.968c1.152,0,2.291,0.393,3.185,1.203   c2.385,2.16,2.054,5.844-0.414,7.604l-11.907,8.49c-0.846,0.603-1.822,0.88-2.793,0.88c-0.157,0-0.314-0.007-0.469-0.021   c0.008,0.148,0.023,0.295,0.023,0.445v13.727h2.948V77.886c0.711-0.239,1.385-0.582,2.003-1.023l11.907-8.49   c1.933-1.379,3.122-3.536,3.261-5.918c0.139-2.375-0.801-4.662-2.579-6.272c-1.399-1.268-3.233-1.966-5.164-1.966   c-1.677,0-3.355,0.538-4.726,1.516l-11.777,8.398c-0.279,0.199-0.545,0.418-0.795,0.655c-1.198-0.412-2.457-0.624-3.734-0.624   h-5.438c-1.277,0-2.536,0.213-3.734,0.624c-0.25-0.237-0.516-0.456-0.795-0.655L30.81,55.733c-1.371-0.978-3.05-1.516-4.726-1.516   c-1.931,0-3.765,0.698-5.164,1.966c-1.778,1.61-2.718,3.896-2.579,6.272c0.139,2.382,1.328,4.54,3.261,5.918l11.907,8.49   c0.618,0.441,1.292,0.784,2.003,1.023v11.607h2.948V75.766z" fill="#47525d"/>
	<path d="M39.107,49.746c0,5.916,4.813,10.729,10.729,10.729c5.916,0,10.729-4.813,10.729-10.729   c0-5.916-4.813-10.729-10.729-10.729C43.92,39.018,39.107,43.83,39.107,49.746z M57.616,49.746c0,4.297-3.483,7.781-7.781,7.781   c-4.297,0-7.781-3.483-7.781-7.781c0-4.297,3.483-7.781,7.781-7.781C54.133,41.966,57.616,45.449,57.616,49.746z" fill="#47525d"/>
	<path d="M27.696,47.225v-9.86c13.812-6.244,30.518-6.544,44.607-0.894v12.663H95l-5.385-9.692L95,29.751h-6.551   c1.256-2.028,2.531-4.043,3.839-6.025l0.72-1.09l-1.103-0.699c-24.057-15.239-57.66-15.24-81.719,0l-1.103,0.699l0.72,1.09   c0.897,1.36,1.783,2.733,2.657,4.116H5l5.385,9.692L5,47.225H27.696z M90.919,32.151l-4.051,7.291l4.051,7.291H74.705v-9.227   c2.004,0.922,3.949,1.961,5.811,3.135l1.147,0.723l0.657-1.186c1.491-2.692,3.047-5.373,4.65-8.028H90.919z M89.426,23.416   c-3.052,4.677-5.97,9.494-8.696,14.352c-17.679-10.502-41.692-10.501-59.369,0c-2.726-4.858-5.644-9.675-8.696-14.352   C35.46,9.6,66.631,9.6,89.426,23.416z M9.081,30.241h4.866c2.019,3.277,3.974,6.596,5.825,9.937l0.657,1.186l1.147-0.723   c1.207-0.761,2.451-1.463,3.72-2.118v6.301H9.081l4.051-7.291L9.081,30.241z" fill="#47525d"/></g>
</svg>