<svg xmlns="http://www.w3.org/2000/svg" xmlns:xlink="http://www.w3.org/1999/xlink" version="1.1" x="0px" y="0px" viewBox="0 0 100 125" style="enable-background:new 0 0 100 100;" xml:space="preserve">
    <path d="M47.5,72.5c0-1.381-1.119-2.5-2.5-2.5s-2.5,1.119-2.5,2.5c0,1.379-1.121,2.5-2.5,2.5s-2.5-1.121-2.5-2.5v-5  c0-1.381-1.119-2.5-2.5-2.5s-2.5,1.119-2.5,2.5v5c0,1.379-1.121,2.5-2.5,2.5c-1.381,0-2.5,1.119-2.5,2.5S28.619,80,30,80  c1.919,0,3.672-0.725,5-1.914C36.328,79.275,38.081,80,40,80s3.672-0.725,5-1.914C46.328,79.275,48.081,80,50,80h5  c1.381,0,2.5-1.119,2.5-2.5S56.381,75,55,75h-5C48.621,75,47.5,73.879,47.5,72.5z" fill="#47525d" />
    <path d="M47.5,20h-15c-1.381,0-2.5,1.119-2.5,2.5s1.119,2.5,2.5,2.5h15c1.381,0,2.5-1.119,2.5-2.5S48.881,20,47.5,20z" fill="#47525d" />
    <path d="M85,81.465V22.5c0-1.259-0.987-2.022-1.794-2.829c-1.25-1.25-9.618-9.618-12.552-12.552C69.775,6.239,68.865,5,67.5,5h-50  C16.119,5,15,6.119,15,7.5v3.965L9.268,5.732c-0.977-0.977-2.559-0.977-3.535,0s-0.977,2.559,0,3.535L15,18.535V92.5  c0,1.381,1.119,2.5,2.5,2.5h65c1.381,0,2.5-1.119,2.5-2.5v-3.965l5.732,5.732C91.221,94.756,91.86,95,92.5,95  s1.279-0.244,1.768-0.732c0.977-0.977,0.977-2.559,0-3.535L85,81.465z M70,13.535L76.465,20H70V13.535z M80,90H20V23.535  l10.73,10.73c0.002,0.002,0.003,0.003,0.005,0.005l5.73,5.73H32.5c-1.381,0-2.5,1.119-2.5,2.5s1.119,2.5,2.5,2.5h8.965l5,5H32.5  c-1.381,0-2.5,1.119-2.5,2.5s1.119,2.5,2.5,2.5h18.965L80,83.535V90z M80,76.465L58.535,55H67.5c1.381,0,2.5-1.119,2.5-2.5  S68.881,50,67.5,50H53.535l-5-5H67.5c1.381,0,2.5-1.119,2.5-2.5S68.881,40,67.5,40H43.535l-5-5H67.5c1.381,0,2.5-1.119,2.5-2.5  S68.881,30,67.5,30H33.535L20,16.465V10h45v12.5c0,1.381,1.119,2.5,2.5,2.5H80V76.465z"  fill="#47525d"/>
</svg>
