<svg xmlns="http://www.w3.org/2000/svg" xmlns:xlink="http://www.w3.org/1999/xlink" version="1.1" x="0px" y="0px" viewBox="0 0 100 125" enable-background="new 0 0 100 100" xml:space="preserve"><path fill="#47525d" d="M92.891,11.453c-0.003-0.013-0.018-0.018-0.021-0.03c-0.01-0.027-0.023-0.045-0.04-0.068  c-0.017-0.022-0.029-0.04-0.051-0.057c-0.02-0.016-0.036-0.025-0.06-0.036c-0.012-0.006-0.016-0.021-0.029-0.025l-4.034-1.278  c-0.028-0.009-0.054,0.008-0.082,0.007c-0.027-0.001-0.051-0.019-0.079-0.012l-0.807,0.195V9.134c0-0.013-0.012-0.021-0.014-0.034  c-0.002-0.013,0.008-0.023,0.006-0.037c-0.004-0.013-0.018-0.018-0.022-0.03c-0.01-0.027-0.022-0.045-0.04-0.068  c-0.016-0.022-0.029-0.04-0.052-0.057c-0.019-0.015-0.035-0.025-0.058-0.035c-0.012-0.006-0.016-0.021-0.029-0.025L75.375,5.015  c-0.028-0.009-0.053,0.008-0.082,0.007c-0.027-0.001-0.051-0.02-0.078-0.013L61.346,8.355c-0.014,0.003-0.018,0.017-0.03,0.022  c-0.027,0.01-0.046,0.023-0.069,0.04c-0.021,0.016-0.039,0.029-0.057,0.051c-0.016,0.02-0.025,0.037-0.035,0.06  c-0.006,0.012-0.021,0.016-0.024,0.029c-0.005,0.016,0.007,0.031,0.004,0.047c-0.003,0.016-0.018,0.026-0.018,0.043v7.911  l-19.657,4.742v-1.014c0-0.013-0.012-0.021-0.014-0.034c-0.001-0.013,0.009-0.023,0.006-0.037c-0.003-0.013-0.017-0.018-0.022-0.03  c-0.01-0.027-0.023-0.045-0.04-0.068c-0.016-0.022-0.029-0.04-0.05-0.057c-0.02-0.016-0.037-0.026-0.06-0.036  c-0.012-0.006-0.016-0.02-0.029-0.024l-12.103-3.833c-0.029-0.009-0.054,0.008-0.083,0.007c-0.027-0.001-0.05-0.019-0.078-0.012  l-13.869,3.345c-0.013,0.003-0.018,0.017-0.03,0.021c-0.028,0.01-0.047,0.023-0.071,0.041c-0.021,0.016-0.038,0.029-0.055,0.051  c-0.015,0.019-0.025,0.036-0.036,0.058c-0.005,0.012-0.021,0.016-0.024,0.029c-0.005,0.017,0.006,0.031,0.004,0.048  c-0.002,0.016-0.018,0.026-0.018,0.043v6.802l-6.753,1.629c-0.013,0.003-0.018,0.017-0.029,0.021  c-0.028,0.01-0.047,0.023-0.07,0.041c-0.022,0.016-0.039,0.029-0.056,0.051c-0.015,0.02-0.025,0.036-0.036,0.059  c-0.006,0.012-0.021,0.016-0.024,0.029c-0.005,0.016,0.006,0.031,0.004,0.047c-0.002,0.016-0.018,0.026-0.018,0.043v16.216  c0,0.026,0.021,0.042,0.027,0.066c0.009,0.039,0.019,0.07,0.042,0.103c0.023,0.032,0.05,0.049,0.083,0.07  c0.021,0.013,0.031,0.039,0.056,0.047l6.773,2.145v27.716l-4.982,1.201c-0.013,0.004-0.018,0.018-0.03,0.021  c-0.028,0.011-0.047,0.023-0.071,0.041c-0.022,0.017-0.039,0.029-0.055,0.051c-0.015,0.02-0.025,0.036-0.036,0.059  c-0.005,0.012-0.02,0.016-0.024,0.029c-0.005,0.017,0.006,0.031,0.004,0.048c-0.003,0.017-0.018,0.026-0.018,0.043V88.17  c0,0.025,0.021,0.041,0.027,0.065c0.009,0.039,0.019,0.07,0.042,0.103c0.023,0.032,0.05,0.051,0.084,0.07  c0.021,0.014,0.031,0.039,0.056,0.047l4.035,1.277c0.029,0.01,0.06,0.014,0.089,0.015h0h0l0,0l0,0  c0.023-0.001,0.047-0.003,0.07-0.009l0.807-0.194v1.015c0,0.025,0.021,0.041,0.027,0.065c0.009,0.039,0.019,0.07,0.042,0.103  c0.023,0.032,0.05,0.051,0.084,0.07c0.021,0.014,0.031,0.039,0.056,0.047L27.2,94.678c0.03,0.009,0.061,0.014,0.091,0.014  c0.023,0,0.047-0.003,0.07-0.009l13.869-3.345c0.029-0.008,0.042-0.035,0.066-0.049c0.035-0.02,0.065-0.033,0.089-0.064  c0.025-0.031,0.032-0.064,0.042-0.104c0.008-0.027,0.031-0.046,0.031-0.075v-7.911l19.657-4.742v1.014  c0,0.026,0.021,0.043,0.027,0.066c0.009,0.039,0.019,0.07,0.042,0.104c0.023,0.031,0.051,0.049,0.084,0.07  c0.021,0.013,0.031,0.039,0.056,0.047l12.103,3.833c0.031,0.009,0.062,0.015,0.092,0.015c0.022,0,0.047-0.004,0.07-0.01  l13.868-3.346c0.028-0.006,0.042-0.033,0.067-0.048c0.033-0.02,0.064-0.034,0.088-0.064c0.025-0.032,0.032-0.065,0.043-0.104  c0.008-0.025,0.031-0.045,0.031-0.074v-7.911l4.982-1.202c0.028-0.006,0.041-0.033,0.066-0.048c0.034-0.02,0.064-0.034,0.089-0.064  c0.024-0.032,0.032-0.065,0.043-0.104c0.008-0.025,0.03-0.045,0.03-0.074V58.697c0-0.014-0.012-0.021-0.014-0.034  s0.009-0.023,0.006-0.036c-0.003-0.014-0.018-0.019-0.021-0.031c-0.01-0.026-0.023-0.045-0.04-0.068  c-0.017-0.021-0.03-0.039-0.052-0.057c-0.02-0.016-0.036-0.025-0.059-0.035c-0.012-0.006-0.016-0.021-0.029-0.025l-1.094-0.346  v-6.453c0-0.013-0.012-0.021-0.014-0.033c-0.002-0.014,0.008-0.023,0.006-0.037c-0.004-0.013-0.018-0.018-0.022-0.029  c-0.01-0.027-0.022-0.046-0.04-0.068c-0.016-0.022-0.029-0.04-0.051-0.057c-0.02-0.016-0.035-0.025-0.059-0.037  c-0.012-0.005-0.016-0.02-0.029-0.023l-3.699-1.172V24.81l4.982-1.202c0.028-0.007,0.041-0.034,0.066-0.048  c0.034-0.02,0.064-0.034,0.089-0.064c0.024-0.032,0.032-0.065,0.043-0.104c0.008-0.026,0.03-0.045,0.03-0.075V11.523  c0-0.013-0.012-0.021-0.014-0.034C92.883,11.476,92.894,11.466,92.891,11.453z M77.748,50.86l7.47,2.365v15.588l-7.47-2.367V50.86z   M85.817,53.242l5.179-1.25v6.292v0.727v8.581l-3.679,0.887l-1.5,0.362V53.242z M87.688,69.007l3.679-0.888  c0.028-0.007,0.042-0.034,0.067-0.049c0.033-0.02,0.064-0.033,0.088-0.064c0.025-0.031,0.032-0.064,0.043-0.104  c0.008-0.026,0.031-0.045,0.031-0.074v-8.581l0.703-0.169v11.176l-4.611,1.112V69.007z M85.529,52.694l-6.963-2.205l4.648-1.122  l4.082,1.293l2.882,0.912L85.529,52.694z M83.318,48.77c-0.029-0.009-0.054,0.008-0.082,0.007c-0.027-0.001-0.052-0.02-0.08-0.013  l-5.777,1.394c-0.014,0.003-0.019,0.018-0.031,0.022c-0.026,0.01-0.045,0.023-0.068,0.04c-0.021,0.017-0.039,0.03-0.057,0.051  c-0.016,0.02-0.025,0.037-0.035,0.06c-0.006,0.012-0.021,0.016-0.025,0.029c-0.005,0.016,0.007,0.031,0.004,0.047  c-0.002,0.016-0.018,0.026-0.018,0.043v16.216c0,0.025,0.021,0.042,0.027,0.066c0.01,0.039,0.02,0.07,0.043,0.103  s0.05,0.05,0.084,0.069c0.021,0.014,0.03,0.04,0.055,0.048l8.069,2.556c0.03,0.01,0.061,0.014,0.09,0.014h0.001l0,0l0,0l0,0  c0.023,0,0.047-0.002,0.07-0.008l1.5-0.362v2.596v7.911l-13.27,3.201V12.716l13.27-3.201v1.014v2.25v11.793v25.391L83.318,48.77z   M8.505,28.93L9.676,29.3v3.599v0.359v7.738c0,0.026,0.021,0.042,0.027,0.066c0.009,0.039,0.019,0.07,0.042,0.103  c0.023,0.032,0.05,0.049,0.083,0.07c0.021,0.014,0.031,0.04,0.056,0.047l4.035,1.278c0.03,0.009,0.061,0.014,0.091,0.014  c0.023,0,0.047-0.003,0.07-0.009l0.807-0.195v4.167l-6.383-2.021V28.93z M29.044,16.763l10.998,3.483l-12.74,3.074l-10.998-3.483  L29.044,16.763z M61.486,17.085l3.952-0.954l2.929,0.928L41.459,23.55v-1.634L61.486,17.085z M65.438,63.306l2.929,0.928  l-26.908,6.491V69.09l20.027-4.83L65.438,63.306z M37.681,34.946l23.436,7.422v2.594l-28.085-8.895L37.681,34.946z M42.262,35.767  l18.854-4.548v10.52L42.262,35.767z M32.213,36.438l28.903,9.154v15.587l-28.903-9.153V36.438z M61.116,61.809v1.923l-19.657,4.741  V55.582L61.116,61.809z M61.346,30.547l-19.887,4.797V24.167l27.727-6.688v11.176L61.346,30.547z M15.258,28.237l3.952-0.954  l2.929,0.927l-8.117,1.958l-2.929-0.928L15.258,28.237z M15.117,41.698l-0.807,0.195V30.716l8.646-2.086v11.176L15.117,41.698z   M10.276,33.258v-0.359v-3.287l3.435,1.088v11.164l-3.435-1.088V33.258z M15.258,75.41l3.952-0.953l2.929,0.928l-8.117,1.958  l-2.929-0.928L15.258,75.41z M10.276,76.785l3.435,1.089v11.163l-3.435-1.088V76.785z M14.311,77.891l8.646-2.086V86.98  l-7.839,1.891l-0.807,0.195V77.891z M15.487,89.399l7.839-1.892c0.029-0.006,0.042-0.033,0.067-0.048  c0.034-0.02,0.064-0.034,0.089-0.064c0.025-0.032,0.032-0.065,0.042-0.104c0.008-0.025,0.031-0.045,0.031-0.074V75.424  c0-0.014-0.012-0.021-0.014-0.034c-0.001-0.013,0.009-0.023,0.006-0.036c-0.003-0.014-0.017-0.019-0.022-0.031  c-0.01-0.026-0.022-0.045-0.04-0.068c-0.016-0.021-0.028-0.039-0.05-0.056c-0.02-0.017-0.037-0.026-0.061-0.036  c-0.012-0.006-0.016-0.021-0.029-0.025l-4.035-1.277c-0.029-0.009-0.054,0.008-0.082,0.008c-0.028-0.002-0.052-0.02-0.08-0.014  l-3.664,0.885V46.702v-4.476l7.839-1.891c0.029-0.007,0.042-0.034,0.067-0.048c0.034-0.02,0.064-0.034,0.089-0.065  c0.025-0.031,0.032-0.064,0.042-0.104c0.008-0.026,0.031-0.045,0.031-0.075V28.25c0-0.013-0.012-0.021-0.014-0.034  c-0.001-0.013,0.009-0.024,0.006-0.037c-0.003-0.013-0.017-0.018-0.022-0.03c-0.01-0.027-0.022-0.045-0.04-0.068  c-0.016-0.022-0.029-0.04-0.05-0.057c-0.02-0.016-0.037-0.025-0.059-0.036c-0.013-0.006-0.017-0.021-0.03-0.025l-4.035-1.278  c-0.028-0.009-0.053,0.008-0.082,0.007c-0.027-0.001-0.051-0.019-0.08-0.012l-3.664,0.884v-7.357l11.503,3.644v70.131l-11.503-3.644  V89.399z M27.59,23.867l13.269-3.201v1.014v2.251v11.392l-3.076-0.974c-0.029-0.009-0.054,0.008-0.082,0.007  c-0.028-0.001-0.051-0.019-0.079-0.013l-5.779,1.394c-0.013,0.003-0.018,0.017-0.029,0.021c-0.028,0.01-0.047,0.023-0.071,0.041  c-0.022,0.016-0.039,0.029-0.056,0.051c-0.016,0.02-0.025,0.036-0.036,0.059c-0.005,0.012-0.021,0.016-0.024,0.029  c-0.005,0.016,0.006,0.031,0.004,0.047c-0.003,0.016-0.018,0.026-0.018,0.043v16.216c0,0.026,0.021,0.043,0.027,0.066  c0.009,0.039,0.019,0.07,0.042,0.104c0.023,0.031,0.05,0.049,0.084,0.07c0.021,0.013,0.031,0.039,0.056,0.047l9.036,2.861v13.461  v2.252v11.793v7.911l-13.269,3.2V23.867z M41.459,71.342l27.727-6.688v11.176l-7.84,1.892l-19.887,4.797V71.342z M61.716,78.248  l7.839-1.891c0.029-0.008,0.043-0.035,0.067-0.049c0.034-0.02,0.064-0.033,0.089-0.064c0.025-0.031,0.031-0.064,0.043-0.104  c0.008-0.027,0.031-0.046,0.031-0.075V64.272c0-0.013-0.013-0.021-0.015-0.034c-0.001-0.013,0.009-0.023,0.006-0.036  s-0.017-0.018-0.022-0.03c-0.01-0.026-0.021-0.045-0.039-0.068s-0.031-0.041-0.054-0.058c-0.019-0.015-0.034-0.024-0.056-0.034  c-0.012-0.006-0.017-0.021-0.029-0.025l-4.035-1.277c-0.028-0.01-0.053,0.008-0.082,0.007c-0.027-0.001-0.051-0.02-0.079-0.013  l-3.664,0.884V31.075l7.839-1.891c0.029-0.007,0.043-0.034,0.067-0.048c0.034-0.02,0.064-0.034,0.089-0.064  c0.025-0.032,0.031-0.065,0.043-0.104c0.008-0.026,0.031-0.045,0.031-0.075V17.099c0-0.013-0.013-0.021-0.015-0.034  c-0.001-0.013,0.009-0.023,0.006-0.037s-0.017-0.018-0.022-0.03c-0.01-0.027-0.021-0.045-0.039-0.069  c-0.017-0.023-0.031-0.04-0.053-0.058c-0.02-0.015-0.035-0.025-0.057-0.035c-0.013-0.006-0.017-0.021-0.029-0.025l-4.035-1.278  c-0.029-0.009-0.055,0.007-0.083,0.007c-0.027-0.001-0.05-0.019-0.078-0.012l-3.664,0.884V9.056L73.219,12.7v70.13l-11.503-3.643  V78.248z M75.273,5.612l10.997,3.483l-12.739,3.073L62.533,8.686L75.273,5.612z M88.553,10.557l2.93,0.927l-3.795,0.915v-1.633  L88.553,10.557z M87.688,13.016l4.611-1.112V23.08l-4.611,1.112V13.016z M14.888,27.709l-4.682,1.129l-0.883-0.279l5.565-1.343  V27.709z" /></svg>