<svg xmlns="http://www.w3.org/2000/svg" xmlns:xlink="http://www.w3.org/1999/xlink" version="1.1" x="0px" y="0px" viewBox="0 0 200 250" enable-background="new 0 0 200 200" xml:space="preserve">
    <g>
        <rect x="49" y="112.4" transform="matrix(-0.7071 0.7071 -0.7071 -0.7071 175.7248 159.3798)" width="11.7" height="7.3" fill="#47525d" />
        <rect x="134.4" y="112.4" transform="matrix(0.7071 0.7071 -0.7071 0.7071 123.1684 -65.1865)" width="11.7" height="7.3" fill="#47525d" />
        <path d="M178.5,162.5l-16.3,0c0,0-1.2-3.6-6.2-4.6V118h3v-4h-3v-8c2-0.8,3.6-2.9,3.6-5.2c0-3.1-2.5-5.6-5.6-5.6s-5.9,2.5-5.9,5.6   c0,2.3,0.9,4.2,2.9,5.1v8.1h-3v4h3v39.9c-4,0.8-5.2,4.1-5.3,5.1H127v-34c5-2.6,8.6-5.4,10.6-7.4l-3.6-3.5c-1.5,1.5-4,3.3-7,5.2V35   H67v88.3c-3-1.9-5.3-3.8-6.7-5.2l-3.5,3.5c2,2,5.2,4.8,10.2,7.4v34H49.3c-0.1-1-1.3-4.4-6.3-5.1V117h3v-4h-3v-7.1   c2-0.9,3.4-2.8,3.4-5.1c0-3.1-2.5-5.6-5.6-5.6s-6,2.5-6,5.6c0,2.4,1.1,4.4,3.1,5.2v7h-3v4h3v40.9c-5,0.9-5.6,4.6-5.6,4.6l-11,0   c-0.8,0-1.4,0.9-1.4,1.8s0.7,1.8,1.6,1.8h45.7h60.7h50.6c0.8,0,1.5-0.9,1.5-1.8S179.3,162.5,178.5,162.5z M70,38h54v87   c-6,3.6-15.7,6.7-27,6.7c-11.3,0-21-3.2-27-6.7V38z M70,130.6c7,3.4,15.9,6.1,27,6.1c11.1,0,20-2.8,27-6.1V163H70V130.6z" fill="#47525d" />
        <circle cx="77" cy="97.8" r="2.2" fill="#47525d" />
        <path d="M44.1,111.9c0.4,0.4,1,0.4,1.4,0c1.8-1.8,3.2-1,5.1,0.9c0.2,0.2,0.5,0.3,0.7,0.3s0.5-0.1,0.7-0.3c0.4-0.4,0.4-1,0-1.4   c-1.2-1.2-4.4-4.4-7.9-0.9C43.7,110.8,43.7,111.5,44.1,111.9z" fill="#47525d" />
        <path d="M143.7,113c0.2,0,0.4-0.1,0.6-0.2c1.6-1.6,2.8-2.2,4.3-0.7c0.3,0.3,0.9,0.3,1.2,0s0.3-0.9,0-1.2c-2.9-2.9-5.6-0.3-6.6,0.7   c-0.3,0.3-0.3,0.9,0,1.2C143.2,113,143.5,113,143.7,113z" fill="#47525d" />
        <rect x="74" y="156" width="46" height="5" fill="#47525d" />
        <rect x="74" y="49" width="46" height="29" fill="#47525d" />
    </g>
</svg>
