<svg xmlns="http://www.w3.org/2000/svg" xmlns:xlink="http://www.w3.org/1999/xlink" version="1.1" x="0px" y="0px" viewBox="0 0 64 80" enable-background="new 0 0 64 64" xml:space="preserve">
    <g>
        <g>
            <path d="M20,7.5H8C7.724,7.5,7.5,7.724,7.5,8v12c0,0.276,0.224,0.5,0.5,0.5h12c0.276,0,0.5-0.224,0.5-0.5V8    C20.5,7.724,20.276,7.5,20,7.5z M19.5,19.5h-11v-11h11V19.5z" fill="#47525d"/>
            <path d="M56,7.5H44c-0.276,0-0.5,0.224-0.5,0.5v12c0,0.276,0.224,0.5,0.5,0.5h12c0.276,0,0.5-0.224,0.5-0.5V8    C56.5,7.724,56.276,7.5,56,7.5z M55.5,19.5h-11v-11h11V19.5z" fill="#47525d"/>
            <path d="M28,14.5h6c0.276,0,0.5-0.224,0.5-0.5s-0.224-0.5-0.5-0.5h-6c-0.276,0-0.5,0.224-0.5,0.5S27.724,14.5,28,14.5z" fill="#47525d"/>
            <path d="M34.354,11.646c-0.195-0.195-0.512-0.195-0.707,0s-0.195,0.512,0,0.707L35.293,14l-1.646,1.646    c-0.195,0.195-0.195,0.512,0,0.707C33.744,16.451,33.872,16.5,34,16.5s0.256-0.049,0.354-0.146l2-2    c0.195-0.195,0.195-0.512,0-0.707L34.354,11.646z" fill="#47525d"/>
            <path d="M50.5,34v-6c0-0.276-0.224-0.5-0.5-0.5s-0.5,0.224-0.5,0.5v6c0,0.276,0.224,0.5,0.5,0.5S50.5,34.276,50.5,34z" fill="#47525d"/>
            <path d="M47.646,33.646c-0.195,0.195-0.195,0.512,0,0.707l2,2C49.744,36.451,49.872,36.5,50,36.5s0.256-0.049,0.354-0.146l2-2    c0.195-0.195,0.195-0.512,0-0.707s-0.512-0.195-0.707,0L50,35.293l-1.646-1.646C48.158,33.451,47.842,33.451,47.646,33.646z" fill="#47525d"/>
            <path d="M56,43.5H44c-0.276,0-0.5,0.224-0.5,0.5v12c0,0.276,0.224,0.5,0.5,0.5h12c0.276,0,0.5-0.224,0.5-0.5V44    C56.5,43.724,56.276,43.5,56,43.5z M55.5,55.5h-11v-11h11V55.5z" fill="#47525d"/>
            <path d="M36,49.5h-6c-0.276,0-0.5,0.224-0.5,0.5s0.224,0.5,0.5,0.5h6c0.276,0,0.5-0.224,0.5-0.5S36.276,49.5,36,49.5z" fill="#47525d"/>
            <path d="M28.707,50l1.646-1.646c0.195-0.195,0.195-0.512,0-0.707s-0.512-0.195-0.707,0l-2,2c-0.195,0.195-0.195,0.512,0,0.707l2,2    C29.744,52.451,29.872,52.5,30,52.5s0.256-0.049,0.354-0.146c0.195-0.195,0.195-0.512,0-0.707L28.707,50z" fill="#47525d"/>
            <path d="M20,43.5H8c-0.276,0-0.5,0.224-0.5,0.5v12c0,0.276,0.224,0.5,0.5,0.5h12c0.276,0,0.5-0.224,0.5-0.5V44    C20.5,43.724,20.276,43.5,20,43.5z M19.5,55.5h-11v-11h11V55.5z" fill="#47525d"/>
            <path d="M13.5,30v6c0,0.276,0.224,0.5,0.5,0.5s0.5-0.224,0.5-0.5v-6c0-0.276-0.224-0.5-0.5-0.5S13.5,29.723,13.5,30z" fill="#47525d"/>
            <path d="M16,30.5c0.128,0,0.256-0.049,0.354-0.146c0.195-0.195,0.195-0.512,0-0.707l-2-2c-0.195-0.195-0.512-0.195-0.707,0l-2,2    c-0.195,0.195-0.195,0.512,0,0.707s0.512,0.195,0.707,0L14,28.707l1.646,1.646C15.744,30.451,15.872,30.5,16,30.5z" fill="#47525d"/>
        </g>
    </g>
</svg>
