<svg xmlns="http://www.w3.org/2000/svg" data-name="Layer 1" viewBox="0 0 100 125" x="0px" y="0px">
    <path d="M41.48,46.21c-.83-.2-1.62-.4-2.29-.63-.74-.52-2.61-3.2-2.72-4.53,0,0,0-.09,0-.13a14.16,14.16,0,0,0,1.3-2h0c.27-.51.63-1.08,1-1.69a22.53,22.53,0,0,0,4.13-12.7v0c0-7.73-6.17-14.26-13.47-14.26-7.5,0-13.83,6.53-13.83,14.26,0,7.31,2.33,10.45,4,12.74.34.46.64.86.87,1.24a1.93,1.93,0,0,0,.13.16,2,2,0,0,0,.12.29,12.57,12.57,0,0,0,1.7,2.46,6,6,0,0,1-1.24,2.44l0,0,0,0a18.62,18.62,0,0,1-1.51,1.31c-.58.2-1.16.36-1.78.54-2.05.58-4.18,1.18-5.85,3a11.4,11.4,0,0,0-3,7.91v27.5a2,2,0,0,0,4,0V56.57a7.43,7.43,0,0,1,1.92-5.16,4.93,4.93,0,0,1,1.81-1.14l-2.14,9.29a2,2,0,0,0,.39,1.7l3.25,4.07v5.76a2,2,0,0,0,.34,1.11l3.69,5.54a2,2,0,1,0,3.33-2.22l-3.36-5V64.62a2,2,0,0,0-.44-1.25L18.7,59.51l1-4.45,2.39,6.61a2,2,0,1,0,3.76-1.36l-4.23-11.7a10.12,10.12,0,0,0,1.12-.85l4.68,3.15v1.7a2,2,0,1,0,4,0V50.84l4.17-3.18A7.48,7.48,0,0,0,37.12,49L31.46,64.43V58.16a2,2,0,0,0-4,0V83.08a2,2,0,0,0,4,0V76l8-21.78L41,59.44l-3.76,3.76a2,2,0,0,0-.59,1.41v5.85l-3.36,5a2,2,0,1,0,3.33,2.22l3.69-5.54a2,2,0,0,0,.34-1.11V65.45l4-4a2,2,0,0,0,.5-2l-2.71-8.8a5.62,5.62,0,0,1,2.42,1.23A7.44,7.44,0,0,1,46.84,57V84a2,2,0,0,0,4,0V57a11.42,11.42,0,0,0-3-7.92C46.2,47.37,43.7,46.75,41.48,46.21Zm-12.07-32c5.13,0,9.46,4.69,9.47,10.24,0,0,0,.07,0,.11C33.26,24.49,29.65,23,27.6,20a2,2,0,0,0-3.25-.08c-1.08,1.43-3.27,3.47-4.71,3.59C20.15,18.46,24.5,14.24,29.41,14.24ZM19.75,27.5c2.44-.12,4.69-1.87,6.15-3.32,2.81,2.78,6.94,4.21,12.47,4.38a20.57,20.57,0,0,1-3,6.54c-.42.67-.82,1.3-1.16,1.93h0c-1.25,2.35-3.09,3.81-4.8,3.81s-4-1.56-5.16-3.8a2,2,0,0,0-.19-.28,2,2,0,0,0-.18-.38c-.32-.53-.68-1-1.07-1.53A13.64,13.64,0,0,1,19.75,27.5Zm9.63,19.9-4-2.69c.12-.25.24-.5.35-.76a8.32,8.32,0,0,0,3.68.91,7.71,7.71,0,0,0,3.76-1c.07.17.15.34.23.51Z" fill="#47525d"/>
    <path d="M74.51,33h0a2,2,0,0,0,2-2V28.55a2.36,2.36,0,0,1,1-2l.3-.2.19-.13c.1,0,.23-.09.47-.18a4.44,4.44,0,0,0,2.45-2.61,5.44,5.44,0,0,0,0-4.44l-.15-.3c-.47-.93-.87-1.74-.87-4.94a3.6,3.6,0,0,1,3.36-3.56h.12A3.6,3.6,0,0,1,86.7,13.8c0,3.2-.4,4-.87,4.94l-.15.3a5.44,5.44,0,0,0,0,4.43,4.44,4.44,0,0,0,2.45,2.61c.24.09.37.13.47.17l.2.13.3.2a2.36,2.36,0,0,1,1,2V31a2,2,0,0,0,2,2h0a2,2,0,0,0,2-2V28.56a6.32,6.32,0,0,0-2.76-5.3L91,23.08a4.9,4.9,0,0,0-1.43-.72,1.79,1.79,0,0,1-.3-1.57l.13-.26c.74-1.47,1.3-2.89,1.3-6.73a7.56,7.56,0,0,0-7.36-7.56h-.12a7.56,7.56,0,0,0-7.36,7.56c0,3.84.56,5.27,1.3,6.73l.13.26a1.8,1.8,0,0,1-.3,1.57,4.92,4.92,0,0,0-1.43.72l-.26.18a6.32,6.32,0,0,0-2.76,5.3V31A2,2,0,0,0,74.51,33Z" fill="#47525d"/>
    <path d="M91.27,53.26,91,53.08a4.89,4.89,0,0,0-1.43-.72,1.79,1.79,0,0,1-.3-1.57l.13-.26c.74-1.47,1.3-2.89,1.3-6.73a7.56,7.56,0,0,0-7.36-7.56h-.12a7.56,7.56,0,0,0-7.36,7.56c0,3.84.56,5.27,1.3,6.73l.13.26a1.8,1.8,0,0,1-.3,1.57,4.9,4.9,0,0,0-1.44.72l-.26.18a6.32,6.32,0,0,0-2.76,5.3V61a2,2,0,0,0,2,2h0a2,2,0,0,0,2-2V58.55a2.36,2.36,0,0,1,1-2l.3-.2.19-.13c.1,0,.23-.09.47-.17a4.44,4.44,0,0,0,2.45-2.61,5.44,5.44,0,0,0,0-4.43l-.15-.3c-.47-.93-.87-1.74-.87-4.94a3.6,3.6,0,0,1,3.36-3.56h.12A3.6,3.6,0,0,1,86.7,43.8c0,3.2-.4,4-.87,4.94l-.15.3a5.44,5.44,0,0,0,0,4.43,4.44,4.44,0,0,0,2.45,2.62c.24.08.37.13.46.17l.2.13.3.2a2.36,2.36,0,0,1,1,2V61a2,2,0,0,0,2,2h0a2,2,0,0,0,2-2V58.56A6.31,6.31,0,0,0,91.27,53.26Z" fill="#47525d"/>
    <path d="M91.27,83.26,91,83.08a4.89,4.89,0,0,0-1.43-.72,1.79,1.79,0,0,1-.3-1.57l.13-.26c.74-1.47,1.3-2.89,1.3-6.73a7.56,7.56,0,0,0-7.36-7.56h-.12a7.56,7.56,0,0,0-7.36,7.56c0,3.84.56,5.27,1.3,6.73l.13.26a1.8,1.8,0,0,1-.3,1.57,4.9,4.9,0,0,0-1.44.72l-.26.18a6.32,6.32,0,0,0-2.76,5.3V91a2,2,0,0,0,2,2h0a2,2,0,0,0,2-2V88.55a2.36,2.36,0,0,1,1-2l.3-.2.19-.13c.1,0,.23-.09.47-.17a4.44,4.44,0,0,0,2.45-2.61,5.44,5.44,0,0,0,0-4.43l-.15-.3c-.47-.93-.87-1.74-.87-4.94a3.6,3.6,0,0,1,3.36-3.56h.12A3.6,3.6,0,0,1,86.7,73.8c0,3.2-.4,4-.87,4.94l-.15.3a5.44,5.44,0,0,0,0,4.43,4.44,4.44,0,0,0,2.45,2.62c.24.08.37.13.46.17l.2.13.3.2a2.36,2.36,0,0,1,1,2V91a2,2,0,0,0,2,2h0a2,2,0,0,0,2-2V88.56A6.31,6.31,0,0,0,91.27,83.26Z" fill="#47525d"/>
    <path d="M68,20a2,2,0,0,0,0-4,8,8,0,0,0-8,8V45H54a2,2,0,0,0,0,4h6V71a8,8,0,0,0,8,8,2,2,0,0,0,0-4,4,4,0,0,1-4-4V49h4a2,2,0,0,0,0-4H64V24A4,4,0,0,1,68,20Z" fill="#47525d"/>
</svg>
