<svg xmlns="http://www.w3.org/2000/svg" xmlns:xlink="http://www.w3.org/1999/xlink" version="1.1" x="0px" y="0px" viewBox="0 0 65 81.25" enable-background="new 0 0 65 65" xml:space="preserve">
    <g>
        <path d="M58.9,31.9c-1.2,0-2.2,0.8-2.5,1.9l-4.4,0L48.8,24l-3.6,15.7l-1.8-5.8l-5.5,0l-2.4-8.2l-2.3,9.7l-3.8,0   c-0.3-1.1-1.3-1.9-2.5-1.9c-1.5,0-2.6,1.2-2.6,2.6c0,1.5,1.2,2.6,2.6,2.6c1.2,0,2.2-0.8,2.5-1.9l5,0l1.3-5.4l1.2,3.9l5.6,0l3.2,10   l3.6-15.8l1.8,5.6l5.5,0c0.3,1.1,1.3,1.9,2.5,1.9c1.5,0,2.6-1.2,2.6-2.6C61.6,33.1,60.4,31.9,58.9,31.9z M26.8,37.3   c-0.6,0-1.1-0.5-1.1-1.1c0-0.6,0.5-1.1,1.1-1.1c0.6,0,1.1,0.5,1.1,1.1C27.9,36.8,27.4,37.3,26.8,37.3z M58.9,35.6   c-0.6,0-1.1-0.5-1.1-1.1c0-0.6,0.5-1.1,1.1-1.1c0.6,0,1.1,0.5,1.1,1.1C60.1,35.1,59.6,35.6,58.9,35.6z" fill="#47525d"/>
        <path d="M65.3,52.9V4.4H-0.2v48.5h23.4v6.3h-3.7v1.5h26.3v-1.5h-3.7v-6.3H65.3z M63.8,5.9v40.8H1.3V5.9H63.8z M1.3,51.4v-3.2h62.5   v3.2H1.3z M40.4,59.1H24.6v-6.3h15.8V59.1z" fill="#47525d"/>
        <path d="M28.6,19.7c-0.4-6.1-5.4-11-11.5-11.5l-0.8-0.1v12.3h12.3L28.6,19.7z M17.9,19V9.8c4.7,0.7,8.5,4.5,9.2,9.2H17.9z" fill="#47525d"/>
        <path d="M28.5,22.8l0.2-0.9H16.6l7.4,8.5l0.6-0.5C26.6,28,28,25.5,28.5,22.8z M19.8,23.4h7c-0.5,1.8-1.4,3.5-2.8,4.8L19.8,23.4z" fill="#47525d"/>
        <path d="M14.4,32.8c0.6,0.1,1.3,0.1,1.9,0.1c2.1,0,4.1-0.5,5.9-1.5l-0.7-1.3c-2.1,1.1-4.5,1.6-6.9,1.2c-4.7-0.7-8.4-4.4-9.1-9.1   c-0.4-2.9,0.3-5.8,2-8.1c1.7-2.3,4.3-3.9,7.2-4.3l-0.2-1.5c-3.2,0.5-6.2,2.3-8.2,4.9c-2,2.7-2.8,5.9-2.3,9.3   C4.8,27.8,9.1,32,14.4,32.8z" fill="#47525d"/>
        <rect x="31.9" y="11.1" width="28.9" height="1.5" fill="#47525d"/>
        <rect x="41.7" y="15.9" width="19.2" height="1.5" fill="#47525d"/>
    </g>
</svg>
