<svg xmlns="http://www.w3.org/2000/svg" viewBox="0 0 100 125" x="0px" y="0px">
    <g>
        <path d="M67,47a1,1,0,0,0-1,1v1.34l-2.75-2.75A1,1,0,0,0,61.83,48l3,3H63a1,1,0,0,0,0,2h4a1,1,0,0,0,1-1V48A1,1,0,0,0,67,47Z" fill="#47525d"/>
        <path d="M35,51H32.66l3-3a1,1,0,0,0-1.41-1.41L31,49.84V48a1,1,0,0,0-2,0v4a1,1,0,0,0,1,1h5a1,1,0,0,0,0-2Z" fill="#47525d"/>
        <path d="M75.41,11H71V10a1,1,0,0,0-1-1H30a1,1,0,0,0-1,1v1H24.59A5.6,5.6,0,0,0,19,16.59V85.41A5.6,5.6,0,0,0,24.59,91H75.41A5.6,5.6,0,0,0,81,85.41V16.59A5.6,5.6,0,0,0,75.41,11ZM31,11H69v1a5,5,0,0,1-4.65,5H36a5.25,5.25,0,0,1-5-5ZM79,85.41A3.6,3.6,0,0,1,75.41,89H24.59A3.6,3.6,0,0,1,21,85.41V16.59A3.6,3.6,0,0,1,24.59,13H29l.09,0A7.3,7.3,0,0,0,36,19H64.35a6.87,6.87,0,0,0,6.57-6h4.48A3.6,3.6,0,0,1,79,16.59Z" fill="#47525d"/>
        <path d="M50,22.75c-9.14,0-16.58,5-16.58,11.25S40.86,45.25,50,45.25,66.58,40.2,66.58,34,59.14,22.75,50,22.75Zm0,20.5c-8,0-14.58-4.15-14.58-9.25S42,24.75,50,24.75,64.58,28.9,64.58,34,58,43.25,50,43.25Z" fill="#47525d"/>
        <path d="M41,32H58a1,1,0,0,0,0-2H41a1,1,0,0,0,0,2Z" fill="#47525d"/>
        <path d="M61,35H39a1,1,0,0,0,0,2H61a1,1,0,0,0,0-2Z" fill="#47525d"/>
        <path d="M46,56H26a1,1,0,0,0-1,1V68a1,1,0,0,0,1,1H46a1,1,0,0,0,1-1V57A1,1,0,0,0,46,56ZM45,67H27V58H45Z" fill="#47525d"/>
        <path d="M30,62h9a1,1,0,0,0,0-2H30a1,1,0,0,0,0,2Z" fill="#47525d"/>
        <path d="M30,65H42a1,1,0,0,0,0-2H30a1,1,0,0,0,0,2Z" fill="#47525d"/>
        <path d="M30,78h9a1,1,0,0,0,0-2H30a1,1,0,0,0,0,2Z" fill="#47525d"/>
        <path d="M46,72H26a1,1,0,0,0-1,1V84a1,1,0,0,0,1,1H46a1,1,0,0,0,1-1V73A1,1,0,0,0,46,72ZM45,83H27V74H45Z" fill="#47525d"/>
        <path d="M30,81H42a1,1,0,0,0,0-2H30a1,1,0,0,0,0,2Z" fill="#47525d"/>
        <path d="M74,72H54a1,1,0,0,0-1,1V84a1,1,0,0,0,1,1H74a1,1,0,0,0,1-1V73A1,1,0,0,0,74,72ZM73,83H55V74H73Z" fill="#47525d"/>
        <path d="M58,78h9a1,1,0,0,0,0-2H58a1,1,0,0,0,0,2Z" fill="#47525d"/>
        <path d="M58,81H70a1,1,0,0,0,0-2H58a1,1,0,0,0,0,2Z" fill="#47525d"/>
        <path d="M74,56H54a1,1,0,0,0-1,1V68a1,1,0,0,0,1,1H74a1,1,0,0,0,1-1V57A1,1,0,0,0,74,56ZM73,67H64.21v0a1,1,0,0,0,.19-.22l0-.06,0,0,3.4-6.53a1,1,0,1,0-1.77-.92l-2.66,5.12-1.5-2a1,1,0,0,0-1.6,1.2l2.45,3.27h0A1,1,0,0,0,63,67H55V58H73Z" fill="#47525d"/>
    </g>
</svg>
