<svg xmlns="http://www.w3.org/2000/svg" xmlns:xlink="http://www.w3.org/1999/xlink" version="1.1" x="0px" y="0px" viewBox="0 0 50 125" enable-background="new 0 0 50 100" xml:space="preserve">
    <ellipse cx="37.566" cy="92.742" rx="0.35" ry="0.43" />
    <g>
        <path d="M38.108,94.889c-0.102,0.955-0.345,1.736-0.542,1.736s-0.44-0.781-0.542-1.736c-0.101-0.955,0.143-1.736,0.542-1.736   S38.209,93.934,38.108,94.889z" />
    </g>
    <path d="M34.867,96.375l-0.471-52.759c2.718-0.801,4.174-3.411,3.329-6.492l-4.374-15.948c-1.019-3.713-2.607-3.692-3.531,0.045  L25.901,37.08c-0.74,2.997,0.655,5.552,3.22,6.449L28.92,96.375h-8.972l-0.533-60.342c3.215-0.517,5.135-3.34,4.354-6.729  L17.975,4.196c-0.866-3.751-2.215-3.737-3,0.033l-4.487,21.579l-1.383-5.992c-0.866-3.751-2.215-3.737-3,0.033L2.144,38.907  c-0.617,2.966,0.81,5.501,3.32,6.449L5.271,96.375H0V100h50v-3.625H34.867z M10.079,45.458c2.656-0.861,4.145-3.463,3.44-6.518  l-0.774-3.353c0.376,0.17,0.781,0.303,1.209,0.395l-0.228,60.393h-3.198L10.079,45.458z" />
</svg>
