<svg width="383" height="460" viewBox="0 0 383 460" xmlns="http://www.w3.org/2000/svg"><title>846EEFD0-CAC7-4BA8-B612-FB214E796BD3</title><g transform="translate(0 1)" fill="none" fill-rule="evenodd"><path d="M98.933 148.69l-39.3 6.93a1.278 1.278 0 0 0-1.038 1.48l14.873 84.35c1.926 10.92 11.975 18.836 22.973 17.426 11.743-1.505 19.72-12.48 17.687-24.005l-15.195-86.18z" fill="#F3F6F9"/><path d="M109.495 231.627c2.032 11.525-5.945 22.5-17.688 24.004-10.998 1.41-21.047-6.506-22.973-17.425l-14.873-84.35a1.277 1.277 0 0 1 1.038-1.48l39.3-6.93" stroke="#0080FF"/><path d="M109.495 231.627L88.51 112.623a1.277 1.277 0 0 1 1.036-1.48l97.467-17.187a1.278 1.278 0 0 1 1.48 1.038l20.983 119.003c1.975 11.2-5.504 21.88-16.703 23.855l-99.983 17.63" stroke="#0080FF"/><path fill="#F3F6F9" d="M110.832 159.141l35.665-6.289-6.289-35.664-35.664 6.289z"/><path stroke="#0080FF" d="M107.357 156.708l35.665-6.289-6.29-35.665-35.664 6.29zm40.777-43.964l30.987-5.464m-24.699 41.129l30.987-5.464m-26.94 28.412l30.987-5.464m-78.052 13.763l30.987-5.464m18.294 9.735l30.987-5.463m-78.052 13.762l30.987-5.464m18.295 9.736l30.987-5.464m-78.052 13.763l30.987-5.464m18.294 9.735l30.987-5.464m-78.052 13.763l30.987-5.464m1.19-87.27l30.987-5.464m-28.891 17.352l30.987-5.464m-73.997 36.759l78.052-13.762"/><path d="M214.083 382.667c3.693-7.246 1.783-14.105-.93-22.453l-10.944-33.682c-2.712-8.348-5.198-15.02-12.445-18.712s-14.105-1.782-22.454.93l-33.681 10.944c-8.348 2.713-15.02 5.199-18.712 12.445-3.693 7.247-1.783 14.106.93 22.454l10.944 33.681c2.712 8.349 5.198 15.02 12.445 18.713 7.247 3.692 14.105 1.782 22.454-.93l33.681-10.944c8.348-2.713 15.02-5.199 18.712-12.446zm46.284-315.241c3.365-1.428 4.688-4.341 6.166-7.999l5.962-14.757c1.478-3.657 2.55-6.672 1.121-10.037-1.428-3.365-4.341-4.688-7.999-6.166l-14.757-5.962c-3.657-1.478-6.672-2.55-10.037-1.121-3.365 1.428-4.688 4.341-6.166 7.999l-5.962 14.757c-1.478 3.657-2.55 6.672-1.121 10.037 1.428 3.365 4.341 4.688 7.999 6.166l14.757 5.962c3.657 1.478 6.672 2.55 10.037 1.121z" fill="#F3F6F9"/><path d="M218.083 372.667c3.693-7.246 1.783-14.105-.93-22.453l-10.944-33.682c-2.712-8.348-5.198-15.02-12.445-18.712s-14.105-1.782-22.454.93l-33.681 10.944c-8.348 2.713-15.02 5.199-18.712 12.445-3.693 7.247-1.783 14.106.93 22.454l10.944 33.681c2.712 8.349 5.198 15.02 12.445 18.713 7.247 3.692 14.105 1.782 22.454-.93l33.681-10.944c8.348-2.713 15.02-5.199 18.712-12.446z" stroke="#0080FF" stroke-linecap="round" stroke-dasharray="6"/><path d="M257.367 59.426c3.365-1.428 4.688-4.341 6.166-7.999l5.962-14.757c1.478-3.657 2.55-6.672 1.121-10.037-1.428-3.365-4.341-4.688-7.999-6.166l-14.757-5.962c-3.657-1.478-6.672-2.55-10.037-1.121-3.365 1.428-4.688 4.341-6.166 7.999l-5.962 14.757c-1.478 3.657-2.55 6.672-1.121 10.037 1.428 3.365 4.341 4.688 7.999 6.166l14.757 5.962c3.657 1.478 6.672 2.55 10.037 1.121z" stroke="#0080FF" stroke-linecap="round"/><ellipse fill="#FFCF64" cx="38.5" cy="61.5" rx="6.5" ry="6.5"/><ellipse fill="#FFCF64" cx="331" cy="385" rx="4" ry="4"/><ellipse fill="#FFCF64" cx="38" cy="435" rx="4" ry="4"/><circle stroke="#0060FF" cx="227.5" cy="454.5" r="3.5"/><ellipse stroke="#0060FF" cx="45.5" cy="331.5" rx="3.5" ry="3.5"/><circle fill="#F3F6F9" cx="255.5" cy="228.5" r="8.5"/><circle fill="#F3F6F9" cx="166.5" cy="24.5" r="8.5"/><ellipse fill="#F3F6F9" cx="16" cy="233" rx="16" ry="16"/><circle stroke="#0060FF" cx="378.5" cy="3.5" r="3.5"/></g></svg>