<svg width="1440" height="1076" viewBox="0 0 1440 1076" preserveAspectRatio="none" xmlns="http://www.w3.org/2000/svg" xmlns:xlink="http://www.w3.org/1999/xlink">
   <title>1380D05C-9736-4892-B086-E15AB120521A</title>
   <defs>
      <path id="a" d="M0 0h1440v900H0z"/>
      <path id="c" d="M0 0h1440v900H0z"/>
      <linearGradient x1="50%" y1="0%" x2="50%" y2="86.563%" id="e">
         <stop stop-color="#4D6D89" offset="0%"/>
         <stop stop-color="#F66B00" offset="13.799%"/>
         <stop stop-color="#FFF" stop-opacity="0" offset="100%"/>
      </linearGradient>
      <path d="M-299.265 832.904C-139.358 844.08-63.697 649.81 112.02 649.81c175.718 0 304.722 196.076 512.713 196.076C832.724 845.887 940.5 571 1172.482 571 1404.464 571 1573 845.887 1573 845.887V1076H-247.41s-211.762-254.273-51.855-243.096z" id="f"/>
      <linearGradient x1="50%" y1="0%" x2="50%" y2="100%" id="g">
         <stop stop-color="#4D6D89" offset="0%"/>
         <stop stop-color="#93B2B8" offset="100%"/>
      </linearGradient>
   </defs>
   <g fill="none" fill-rule="evenodd">
      <mask id="b" fill="#fff">
         <use xlink:href="#a"/>
      </mask>
      <use fill="#FFF" xlink:href="#a"/>
      <g mask="url(#b)">
         <mask id="d" fill="#fff">
            <use xlink:href="#c"/>
         </mask>
         <use fill="#FFF" xlink:href="#c"/>
         <path mask="url(#d)" d="M0 0h1440v900H0z"/>
         <g mask="url(#d)">
            <path d="M-515.546 700.165c169.862 12.223 147.583-244.456 380.405-244.456 232.821 0 277.068 301.33 592.7 301.33C773.189 757.04 895.914 258 1199.863 258c303.949 0 355.693 274.513 355.693 274.513L1721 966H-460.463s-224.945-278.057-55.083-265.835z" stroke="#E0E4E8"/>
            <path d="M-74.87 442.165C112.864 454.388 88.242 197.71 345.56 197.71c257.319 0 306.221 301.33 655.063 301.33C1349.463 499.04 1485.1 0 1821.03 0c335.93 0 393.118 274.513 393.118 274.513l196.842 579.682H0s-262.604-424.252-74.87-412.03z" stroke="#E4EFF8" stroke-linecap="round"/>
            <path d="M548.56 812.654C713.35 825.912 791.32 595.48 972.404 595.48c181.083 0 314.027 232.574 528.37 232.574 214.343 0 325.41-326.054 564.476-326.054C2304.317 502 2478 828.054 2478 828.054V1101H601.998s-218.23-301.603-53.439-288.346z" fill="url(#e)" transform="translate(-579)"/>
            <path d="M-299.265 844.904C-139.358 856.08-63.697 661.81 112.02 661.81c175.718 0 304.722 196.076 512.713 196.076C832.724 857.887 940.5 583 1172.482 583 1404.464 583 1573 857.887 1573 857.887V1088H-247.41s-211.762-254.273-51.855-243.096z" stroke="#0080FF"/>
         </g>
      </g>
      <mask id="h" fill="#fff">
         <use xlink:href="#f"/>
      </mask>
      <use fill="#FFF" xlink:href="#f"/>
      <path d="M1440 795.748s-241.92-241.501-660.59 0C360.743 1037.248 0 778.728 0 778.728V573.873l1171.256-15.438L1440 602.65v193.099z" fill="url(#g)" mask="url(#h)"/>
   </g>
</svg>