<svg width="442" height="440" viewBox="0 0 442 440" xmlns="http://www.w3.org/2000/svg"><title>59BB882D-FBB1-40AC-BF30-F36D62CA8EF3</title><g transform="translate(1 -1)" fill="none" fill-rule="evenodd"><circle stroke="#0080FF" stroke-linecap="round" stroke-dasharray="8" cx="251" cy="227" r="176"/><path d="M366.733 311.795H136.2a8.941 8.941 0 0 1-8.94-8.942v-6.468h248.413v6.468a8.942 8.942 0 0 1-8.941 8.942zM340.422 162.26h-177.91a9.214 9.214 0 0 0-9.213 9.213v124.912h196.336V171.473a9.214 9.214 0 0 0-9.213-9.213z" stroke="#0080FF" stroke-linejoin="round"/><path fill="#F3F6F9" d="M168.573 288.257h175.789v-107.87h-175.79z"/><path stroke="#0080FF" stroke-linejoin="round" d="M163.573 283.257h175.789v-107.87h-175.79z"/><path d="M201.138 253.699c12.241 0 14.326-27.112 30.378-27.112 16.053 0 17.102 15.386 35.34 15.386 18.238 0 23.324-25.04 37.452-34.835" stroke="#0080FF" stroke-linecap="round"/><path d="M234.335 226.587a2.818 2.818 0 1 0-5.637 0 2.818 2.818 0 0 0 5.637 0" fill="#FFF"/><path d="M234.335 226.587a2.818 2.818 0 1 0-5.637 0 2.818 2.818 0 0 0 5.637 0z" stroke="#0080FF"/><path d="M203.956 253.699a2.818 2.818 0 1 0-5.637-.001 2.818 2.818 0 0 0 5.637 0" fill="#FFF"/><path d="M203.956 253.699a2.818 2.818 0 1 0-5.637-.001 2.818 2.818 0 0 0 5.637 0z" stroke="#0080FF"/><path d="M307.127 207.138a2.819 2.819 0 1 0-5.637 0 2.819 2.819 0 0 0 5.637 0" fill="#FFF"/><path d="M307.127 207.138a2.819 2.819 0 1 0-5.637 0 2.819 2.819 0 0 0 5.637 0z" stroke="#0080FF"/><path d="M269.675 241.974a2.818 2.818 0 1 0-5.637-.001 2.818 2.818 0 0 0 5.637 0" fill="#FFF"/><path d="M269.675 241.974a2.818 2.818 0 1 0-5.637-.001 2.818 2.818 0 0 0 5.637 0z" stroke="#0080FF"/><path d="M253.202 169.67a1.735 1.735 0 1 0-3.47 0 1.735 1.735 0 0 0 3.47 0z" stroke="#0080FF" stroke-linejoin="round"/><circle fill="#F3F6F9" cx="41.5" cy="352.5" r="36.5"/><circle stroke="#0080FF" cx="36.5" cy="346.5" r="36.5"/><circle stroke="#0080FF" cx="41.5" cy="98.5" r="6.5"/><circle stroke="#0080FF" cx="109.5" cy="433.5" r="6.5"/><circle stroke="#0080FF" cx="416" cy="350" r="3"/><circle stroke="#0080FF" cx="379.5" cy="262.5" r="6.5"/><circle stroke="#0080FF" fill="#FFF" cx="131.5" cy="166.5" r="4.5"/><circle stroke="#0080FF" fill="#FFF" cx="163" cy="118" r="3"/><path d="M251.797 110.532c-17.077.674-31.085 14.37-32.112 31.43-.922 15.319 8.449 28.582 21.847 33.533v14.031a4.835 4.835 0 0 0 4.836 4.835h.599a6.187 6.187 0 1 0 12.373 0h.599a4.835 4.835 0 0 0 4.834-4.835v-14.03c12.79-4.727 21.91-17.028 21.91-31.46 0-18.969-15.75-34.258-34.886-33.504z" fill="#FFCF64"/><path d="M249.914 107.394c-17.077.673-31.085 14.37-32.112 31.43-.922 15.318 8.449 28.582 21.847 33.533v14.03a4.835 4.835 0 0 0 4.836 4.836h.599a6.187 6.187 0 1 0 12.373 0h.599a4.835 4.835 0 0 0 4.834-4.835v-14.03c12.79-4.727 21.91-17.028 21.91-31.461 0-18.968-15.75-34.258-34.886-33.503zm-10.264 73.521h23.24m-52.914-40.17H194m114.633 0h-15.976m-41.54-57.118v15.976m-29.033 70.573l-11.296 11.297m81.057-81.058l-11.296 11.297m0 58.464l11.296 11.297m-81.057-81.058l11.296 11.297" stroke="#0080FF" stroke-linejoin="round"/><path d="M384.68 369.24c.352-2.877-1.123-4.94-3.048-7.405l-7.769-9.943c-1.925-2.464-3.57-4.395-6.447-4.748-2.876-.353-4.94 1.122-7.404 3.048l-9.943 7.768c-2.464 1.925-4.395 3.57-4.748 6.447-.353 2.876 1.122 4.94 3.047 7.404l7.769 9.943c1.925 2.465 3.57 4.395 6.447 4.749 2.876.353 4.94-1.123 7.404-3.048l9.943-7.768c2.464-1.926 4.395-3.571 4.748-6.447z" fill="#F3F6F9"/><path d="M382.68 366.24c.352-2.877-1.123-4.94-3.048-7.405l-7.769-9.943c-1.925-2.464-3.57-4.395-6.447-4.748-2.876-.353-4.94 1.122-7.404 3.048l-9.943 7.768c-2.464 1.925-4.395 3.57-4.748 6.447-.353 2.876 1.122 4.94 3.047 7.404l7.769 9.943c1.925 2.465 3.57 4.395 6.447 4.749 2.876.353 4.94-1.123 7.404-3.048l9.943-7.768c2.464-1.926 4.395-3.571 4.748-6.447z" stroke="#0080FF"/><path stroke="#0080FF" fill="#FFF" stroke-linejoin="round" d="M429.403 151.636L406 177.627l34.21 7.272z"/><path d="M184.011 34.171c1.744-2.314 1.498-4.839 1.063-7.936l-1.756-12.495c-.435-3.097-.895-5.591-3.209-7.335-2.314-1.744-4.839-1.498-7.936-1.063l-12.495 1.756c-3.097.435-5.592.895-7.336 3.209-1.744 2.314-1.498 4.839-1.063 7.936l1.756 12.495c.436 3.097.895 5.592 3.21 7.336 2.314 1.744 4.839 1.498 7.936 1.063l12.495-1.756c3.097-.436 5.591-.895 7.335-3.21z" fill="#F3F6F9"/><path d="M179.011 31.171c1.744-2.314 1.498-4.839 1.063-7.936l-1.756-12.495c-.435-3.097-.895-5.591-3.209-7.335-2.314-1.744-4.839-1.498-7.936-1.063l-12.495 1.756c-3.097.435-5.592.895-7.336 3.209-1.744 2.314-1.498 4.839-1.063 7.936l1.756 12.495c.436 3.097.895 5.592 3.21 7.336 2.314 1.744 4.839 1.498 7.936 1.063l12.495-1.756c3.097-.436 5.591-.895 7.335-3.21z" stroke="#0080FF"/><circle fill="#FFCF64" cx="60" cy="159" r="3"/><circle fill="#FFCF64" cx="169" cy="347" r="8"/><circle fill="#FFCF64" cx="405" cy="56" r="5"/><circle fill="#FFCF64" cx="360" cy="408" r="5"/><path fill="#FFF" d="M254.936 118L238 142.053l14.636 1.72-4.709 18.068 18.597-23.56-13.888-1.883z"/></g></svg>