<svg width="529" height="370" viewBox="0 0 529 370" xmlns="http://www.w3.org/2000/svg"><title>88D337E5-68A8-4659-BDAA-5D796BCFE9CD</title><g transform="translate(1 -1)" fill="none" fill-rule="evenodd"><path d="M110.272 272.438c6.137-2.605 8.552-7.918 11.247-14.59l10.875-26.915c2.695-6.671 4.65-12.17 2.044-18.307-2.605-6.137-7.918-8.551-14.59-11.247l-26.915-10.874c-6.671-2.696-12.17-4.65-18.307-2.045-6.137 2.605-8.551 7.918-11.247 14.59l-10.874 26.915c-2.696 6.672-4.65 12.17-2.045 18.307 2.605 6.137 7.918 8.552 14.59 11.247l26.915 10.875c6.672 2.695 12.17 4.65 18.307 2.044z" fill="#F5F9FC"/><circle stroke="#0060FF" cx="11.5" cy="116.5" r="11.5"/><circle fill="#FFCF64" cx="130.5" cy="363.5" r="7.5"/><path d="M478.664 62.377c3.893 2.934 8.14 2.52 13.35 1.788l21.022-2.954c5.21-.733 9.407-1.506 12.341-5.399 2.934-3.893 2.52-8.14 1.788-13.351l-2.954-21.021c-.733-5.21-1.506-9.408-5.399-12.342-3.893-2.934-8.14-2.52-13.351-1.788l-21.021 2.955c-5.21.732-9.408 1.505-12.342 5.399-2.934 3.893-2.52 8.14-1.788 13.35l2.955 21.022c.732 5.21 1.505 9.407 5.399 12.341z" fill="#F5F9FC"/><path d="M107.272 266.438c6.137-2.605 8.552-7.918 11.247-14.59l10.875-26.915c2.695-6.671 4.65-12.17 2.044-18.307-2.605-6.137-7.918-8.551-14.59-11.247l-26.915-10.874c-6.671-2.696-12.17-4.65-18.307-2.045-6.137 2.605-8.551 7.918-11.247 14.59l-10.874 26.915c-2.696 6.672-4.65 12.17-2.045 18.307 2.605 6.137 7.918 8.552 14.59 11.247l26.915 10.875c6.672 2.695 12.17 4.65 18.307 2.044z" stroke="#0080FF"/><path d="M472.664 57.377c3.893 2.934 8.14 2.52 13.35 1.788l21.022-2.954c5.21-.733 9.407-1.506 12.341-5.399 2.934-3.893 2.52-8.14 1.788-13.351l-2.954-21.021c-.733-5.21-1.506-9.408-5.399-12.342-3.893-2.934-8.14-2.52-13.351-1.788L478.44 5.265c-5.21.732-9.408 1.505-12.342 5.399-2.934 3.893-2.52 8.14-1.788 13.35l2.955 21.022c.732 5.21 1.505 9.407 5.399 12.341z" stroke="#0080FF" stroke-linecap="round" stroke-dasharray="8,8"/></g></svg>