<svg width="214" height="353" viewBox="0 0 214 353" xmlns="http://www.w3.org/2000/svg"><title>86017B2E-9FB0-40F9-B955-091036B80522</title><g transform="translate(-4 -2)" fill="none" fill-rule="evenodd"><path d="M184.465 75.487c4.012-5.325 3.446-11.133 2.445-18.258l-4.04-28.747c-1.002-7.126-2.059-12.865-7.383-16.877-5.325-4.013-11.133-3.447-18.258-2.445l-28.747 4.04c-7.126 1.001-12.865 2.058-16.877 7.383-4.013 5.324-3.447 11.133-2.445 18.258l4.04 28.747c1.001 7.125 2.058 12.865 7.383 16.877 5.324 4.012 11.133 3.446 18.258 2.445l28.747-4.04c7.125-1.002 12.865-2.059 16.877-7.383z" fill="#F5F9FC"/><circle fill="#FFCF64" cx="213" cy="298" r="5"/><path d="M7.284 329.718c1.096 4.75 4.616 7.164 9.078 9.952l18.002 11.25c4.462 2.787 8.174 4.893 12.924 3.796 4.75-1.096 7.164-4.616 9.952-9.078l11.25-18.002c2.787-4.462 4.893-8.174 3.796-12.924-1.096-4.75-4.616-7.164-9.078-9.952l-18.002-11.25c-4.462-2.787-8.174-4.893-12.924-3.796-4.75 1.096-7.164 4.616-9.952 9.078l-11.25 18.002c-2.787 4.462-4.893 8.174-3.796 12.924z" fill="#F5F9FC"/><path d="M177.465 69.487c4.012-5.325 3.446-11.133 2.445-18.258l-4.04-28.747c-1.002-7.126-2.059-12.865-7.383-16.877-5.325-4.013-11.133-3.447-18.258-2.445L121.482 7.2c-7.126 1.001-12.865 2.058-16.877 7.383-4.013 5.324-3.447 11.133-2.445 18.258l4.04 28.747c1.001 7.125 2.058 12.865 7.383 16.877 5.324 4.012 11.133 3.446 18.258 2.445l28.747-4.04c7.125-1.002 12.865-2.059 16.877-7.383z" stroke="#0080FF"/><path d="M5.284 324.718c1.096 4.75 4.616 7.164 9.078 9.952l18.002 11.25c4.462 2.787 8.174 4.893 12.924 3.796 4.75-1.096 7.164-4.616 9.952-9.078l11.25-18.002c2.787-4.462 4.893-8.174 3.796-12.924-1.096-4.75-4.616-7.164-9.078-9.952l-18.002-11.25c-4.462-2.787-8.174-4.893-12.924-3.796-4.75 1.096-7.164 4.616-9.952 9.078L9.08 311.794c-2.787 4.462-4.893 8.174-3.796 12.924z" stroke="#0080FF" stroke-linecap="round" stroke-dasharray="8,8"/></g></svg>