<svg width="1440" height="624" viewBox="0 0 1440 624" preserveAspectRatio="none" xmlns="http://www.w3.org/2000/svg"><title>FF244CD3-EFFD-4FE3-B9C9-00A3C99BB30B</title><g fill="none" fill-rule="evenodd"><path d="M0 614c212.417-65.515 286.052-243.963 437.705-279.566 151.652-35.602 279.814 111.634 462.857 115.76C1083.606 454.317 1282.915 188.556 1440 155" stroke="#0080FF" stroke-dasharray="6,7"/><path d="M1289.465 148.487c4.012-5.325 3.446-11.133 2.445-18.258l-4.04-28.747c-1.002-7.126-2.059-12.865-7.383-16.877-5.325-4.013-11.133-3.447-18.258-2.445l-28.747 4.04c-7.126 1.001-12.865 2.058-16.877 7.383-4.013 5.324-3.447 11.133-2.445 18.258l4.04 28.747c1.001 7.125 2.058 12.865 7.383 16.877 5.324 4.012 11.133 3.446 18.258 2.445l28.747-4.04c7.125-1.002 12.865-2.059 16.877-7.383zM174.694 375.638c5.065-2.15 7.057-6.535 9.282-12.04l8.974-22.214c2.225-5.506 3.838-10.044 1.688-15.109-2.15-5.065-6.535-7.057-12.04-9.282l-22.214-8.974c-5.506-2.225-10.044-3.838-15.109-1.688-5.065 2.15-7.057 6.535-9.282 12.04l-8.974 22.214c-2.225 5.506-3.838 10.044-1.688 15.109 2.15 5.065 6.535 7.057 12.04 9.282l22.214 8.974c5.506 2.225 10.044 3.838 15.109 1.688zM143.846 60.019c1.767-.75 2.462-2.28 3.238-4.2l3.131-7.75c.776-1.92 1.339-3.504.589-5.27-.75-1.767-2.28-2.462-4.2-3.238l-7.75-3.131c-1.92-.776-3.504-1.339-5.27-.589-1.767.75-2.462 2.28-3.238 4.2l-3.131 7.75c-.776 1.92-1.339 3.504-.589 5.27.75 1.767 2.28 2.462 4.2 3.238l7.75 3.131c1.92.776 3.504 1.339 5.27.589z" fill="#F5F9FC"/><ellipse fill="#FFCF64" cx="32.5" cy="370.5" rx="3.5" ry="3.5"/><circle fill="#F5F8FB" cx="87" cy="385" r="5"/><circle fill="#F5F8FB" cx="1330" cy="619" r="5"/><circle fill="#F5F8FB" cx="227" cy="582" r="5"/><circle fill="#F5F8FB" cx="1118" cy="255" r="5"/><ellipse fill="#FFCF64" cx="95" cy="121" rx="3" ry="3"/><ellipse fill="#FFCF64" cx="1136" cy="4" rx="4" ry="4"/><ellipse fill="#FFCF64" cx="1365.5" cy="446.5" rx="3.5" ry="3.5"/><path d="M1282.465 142.487c4.012-5.325 3.446-11.133 2.445-18.258l-4.04-28.747c-1.002-7.126-2.059-12.865-7.383-16.877-5.325-4.013-11.133-3.447-18.258-2.445l-28.747 4.04c-7.126 1.001-12.865 2.058-16.877 7.383-4.013 5.324-3.447 11.133-2.445 18.258l4.04 28.747c1.001 7.125 2.058 12.865 7.383 16.877 5.324 4.012 11.133 3.446 18.258 2.445l28.747-4.04c7.125-1.002 12.865-2.059 16.877-7.383zM172.694 368.638c5.065-2.15 7.057-6.535 9.282-12.04l8.974-22.214c2.225-5.506 3.838-10.044 1.688-15.109-2.15-5.065-6.535-7.057-12.04-9.282l-22.214-8.974c-5.506-2.225-10.044-3.838-15.109-1.688-5.065 2.15-7.057 6.535-9.282 12.04l-8.974 22.214c-2.225 5.506-3.838 10.044-1.688 15.109 2.15 5.065 6.535 7.057 12.04 9.282l22.214 8.974c5.506 2.225 10.044 3.838 15.109 1.688zM142.846 56.019c1.767-.75 2.462-2.28 3.238-4.2l3.131-7.75c.776-1.92 1.339-3.504.589-5.27-.75-1.767-2.28-2.462-4.2-3.238l-7.75-3.131c-1.92-.776-3.504-1.339-5.27-.589-1.767.75-2.462 2.28-3.238 4.2l-3.131 7.75c-.776 1.92-1.339 3.504-.589 5.27.75 1.767 2.28 2.462 4.2 3.238l7.75 3.131c1.92.776 3.504 1.339 5.27.589z" stroke="#0080FF"/><circle stroke="#0080FF" fill="#FFF" cx="476" cy="328" r="9"/><circle stroke="#0080FF" fill="#FFF" cx="38.5" cy="426.5" r="6.5"/><circle stroke="#0080FF" fill="#FFF" cx="215.5" cy="198.5" r="6.5"/><circle stroke="#0080FF" fill="#FFF" cx="1375.5" cy="383.5" r="6.5"/><circle stroke="#0080FF" fill="#FFF" cx="1259" cy="255" r="9"/><circle stroke="#0080FF" fill="#FFF" cx="136" cy="547" r="9"/><circle fill="#FFCF64" cx="476" cy="328" r="5"/><circle fill="#FFCF64" cx="1259" cy="255" r="5"/><circle fill="#FFCF64" cx="136" cy="547" r="5"/><path d="M1205 465.005c1.097 4.75 4.617 7.163 9.079 9.952l18.002 11.248c4.462 2.789 8.174 4.894 12.924 3.798 4.75-1.097 7.163-4.617 9.952-9.079l11.248-18.002c2.789-4.462 4.894-8.174 3.798-12.924-1.097-4.75-4.617-7.164-9.079-9.952l-18.002-11.249c-4.462-2.788-8.174-4.893-12.924-3.797-4.75 1.097-7.164 4.617-9.952 9.079l-11.249 18.002c-2.788 4.462-4.893 8.174-3.797 12.924zM62.552 231.214c-2.108 3.375-1.47 6.8-.504 10.984l3.898 16.884c.966 4.185 1.894 7.543 5.268 9.651 3.375 2.11 6.8 1.47 10.984.504l16.884-3.897c4.185-.967 7.543-1.894 9.651-5.269 2.11-3.374 1.47-6.799.504-10.984l-3.897-16.883c-.967-4.185-1.894-7.543-5.269-9.652-3.374-2.108-6.799-1.47-10.984-.504l-16.883 3.898c-4.185.966-7.543 1.894-9.652 5.268zm1281.88-217.04c-3.513 1.868-4.673 5.153-5.928 9.26l-5.066 16.571c-1.256 4.107-2.132 7.48-.264 10.993s5.153 4.673 9.26 5.928l16.571 5.066c4.107 1.256 7.48 2.132 10.993.264s4.673-5.153 5.928-9.26l5.066-16.571c1.256-4.107 2.132-7.48.264-10.993s-5.153-4.673-9.26-5.928l-16.571-5.066c-4.107-1.256-7.48-2.132-10.993-.264z" fill="#F5F9FC"/><path d="M1203 460.005c1.097 4.75 4.617 7.163 9.079 9.952l18.002 11.248c4.462 2.789 8.174 4.894 12.924 3.798 4.75-1.097 7.163-4.617 9.952-9.079l11.248-18.002c2.789-4.462 4.894-8.174 3.798-12.924-1.097-4.75-4.617-7.164-9.079-9.952l-18.002-11.249c-4.462-2.788-8.174-4.893-12.924-3.797-4.75 1.097-7.164 4.617-9.952 9.079l-11.249 18.002c-2.788 4.462-4.893 8.174-3.797 12.924zM56.552 227.214c-2.108 3.375-1.47 6.8-.504 10.984l3.898 16.884c.966 4.185 1.894 7.543 5.268 9.651 3.375 2.11 6.8 1.47 10.984.504l16.884-3.897c4.185-.967 7.543-1.894 9.651-5.269 2.11-3.374 1.47-6.799.504-10.984l-3.897-16.883c-.967-4.185-1.894-7.543-5.269-9.652-3.374-2.108-6.799-1.47-10.984-.504l-16.883 3.898c-4.185.966-7.543 1.894-9.652 5.268z" stroke="#0080FF" stroke-linecap="round" stroke-dasharray="8,8"/><path d="M1340.432 9.174c-3.513 1.868-4.673 5.153-5.928 9.26l-5.066 16.571c-1.256 4.107-2.132 7.48-.264 10.993s5.153 4.673 9.26 5.928l16.571 5.066c4.107 1.256 7.48 2.132 10.993.264s4.673-5.153 5.928-9.26l5.066-16.571c1.256-4.107 2.132-7.48.264-10.993s-5.153-4.673-9.26-5.928l-16.571-5.066c-4.107-1.256-7.48-2.132-10.993-.264z" stroke="#0080FF" stroke-linecap="round"/></g></svg>