<svg width="304" height="457" viewBox="0 0 304 457" xmlns="http://www.w3.org/2000/svg"><title>C5083A67-D295-4566-AE2D-ED46A8A4480F</title><g transform="translate(0 1)" fill="none" fill-rule="evenodd"><g transform="translate(128)"><circle fill="#F3F6F9" cx="12" cy="12" r="7"/><circle stroke="#0080FF" cx="8" cy="8" r="8"/></g><g transform="translate(153 275)"><circle fill="#F3F6F9" cx="136.5" cy="101.5" r="14.5"/><circle fill="#F3F6F9" cx="9" cy="131" r="9"/><circle fill="#F3F6F9" cx="97" cy="5" r="5"/><circle stroke="#0080FF" cx="131" cy="97" r="17"/></g><path d="M101.583 249.643c1.045-1.387.897-2.899.637-4.754l-1.052-7.483c-.26-1.855-.536-3.35-1.922-4.394s-2.898-.897-4.753-.636l-7.484 1.051c-1.855.261-3.349.536-4.394 1.922-1.044 1.386-.897 2.899-.636 4.754l1.052 7.483c.26 1.855.536 3.35 1.922 4.394s2.898.897 4.753.636l7.484-1.051c1.854-.261 3.349-.536 4.393-1.922zm89.85-41.862c1.122-.728 1.414-1.862 1.714-3.273l1.21-5.696c.3-1.412.495-2.566-.233-3.688-.729-1.121-1.862-1.413-3.274-1.713l-5.696-1.21c-1.411-.3-2.566-.495-3.687.233-1.122.728-1.414 1.862-1.714 3.274l-1.21 5.695c-.3 1.412-.495 2.567.233 3.688.729 1.122 1.862 1.413 3.274 1.714l5.696 1.21c1.412.3 2.566.495 3.687-.234z" fill="#F5F9FC"/><path d="M98.248 247.419c1.044-1.386.897-2.898.636-4.753l-1.051-7.484c-.261-1.855-.536-3.349-1.922-4.393-1.386-1.045-2.899-.898-4.753-.637l-7.484 1.052c-1.855.26-3.35.536-4.394 1.922s-.897 2.898-.636 4.753l1.052 7.484c.26 1.855.535 3.349 1.922 4.393 1.386 1.045 2.898.898 4.753.637l7.483-1.052c1.855-.26 3.35-.536 4.394-1.922zm96.521-41.861c1.121-.728 1.413-1.862 1.713-3.274l1.21-5.695c.3-1.412.495-2.567-.233-3.688-.728-1.122-1.862-1.413-3.274-1.714l-5.695-1.21c-1.412-.3-2.567-.495-3.688.234-1.122.728-1.413 1.862-1.714 3.273l-1.21 5.696c-.3 1.412-.495 2.566.234 3.688.728 1.121 1.862 1.413 3.273 1.713l5.696 1.21c1.412.3 2.566.495 3.688-.233z" stroke="#0080FF"/><ellipse fill="#FFCF64" cx="120.067" cy="238.223" rx="2.223" ry="2.223"/><ellipse fill="#F5F8FB" cx="94.497" cy="211.542" rx="2.223" ry="2.223"/><ellipse fill="#F5F8FB" cx="160.089" cy="211.542" rx="2.223" ry="2.223"/><circle fill="#F5F8FB" cx="166.76" cy="267.128" r="2.223"/><ellipse fill="#FFCF64" cx="123.402" cy="272.687" rx="3.335" ry="3.335"/><circle fill="#FFCF64" cx="163.425" cy="232.665" r="1.112"/><path d="M109.38 189.984s-4.44 14.96 3.759 26.097c0 0 2.431-7.918 5.352-8.671 0 0 1.127 13.926 13.077 20.718 0 0 6.29-13.39-1.049-27.021 0 0 7.746 9.092 8.3 15.014 0 0 9.505-22.553-9.226-33.031M70.096 40.689S59.434 56.474 58 82.798l47.402-16.167C88.18 46.669 70.096 40.689 70.096 40.689z" fill="#FFCF64"/><path d="M74.197 143.487s-23.655 19.437 5.874 68.031c0 0 1.288-19.49 18.306-31.78m35.297-56.537s30.6.932 36.92 57.444c0 0-12.928-14.643-33.91-13.972" fill="#F5F8FB"/><path d="M1.614 455.011c-15.547-82.152 206.201-58.862 138.097-213.203" stroke="#0080FF" stroke-linecap="round" stroke-dasharray="6,6"/><path d="M102.25 94.508c-2.115-6.203-8.861-9.517-15.064-7.402-6.205 2.116-9.518 8.86-7.403 15.064 2.117 6.203 8.86 9.517 15.065 7.401 6.203-2.116 9.517-8.86 7.401-15.063z" fill="#F3F6F9"/><path d="M102.172 90.51c-2.666-7.818-11.166-11.993-18.984-9.327-7.819 2.666-11.996 11.166-9.328 18.984 2.666 7.819 11.168 11.994 18.985 9.328 7.818-2.666 11.993-11.166 9.327-18.985z" stroke="#0080FF"/><path d="M99.25 91.508c-2.115-6.203-8.861-9.517-15.064-7.402-6.205 2.116-9.518 8.86-7.403 15.064 2.117 6.203 8.86 9.517 15.065 7.401 6.203-2.116 9.517-8.86 7.401-15.063z" stroke="#0080FF" stroke-linecap="round"/><path d="M70.862 142.375s-23.655 19.437 5.874 68.031c0 0 1.288-19.49 18.306-31.779m6.014 6.975l.869 6.924 14.88-5.074" stroke="#0080FF"/><path d="M86.579 167.792l23.424-7.99m-18.727 14.173l18.029-6.15" stroke="#0080FF" stroke-linecap="round" stroke-dasharray="4,4"/><path d="M119.733 179.232l13.117-4.474c8.226-113.061-64.499-137.08-64.499-137.08s-42.894 63.452 32.705 147.925l13.117-4.475m-10.92-117.806l-46.86 15.984" stroke="#0080FF"/><path d="M130.339 122.09s30.6.932 36.92 57.443c0 0-12.928-14.643-33.91-13.972m-.499 9.197l3.543 6.013-14.879 5.075" stroke="#0080FF"/><path d="M100.041 130.593c2.839-.97 8.84 15.446 14.359 31.95 4.991 14.934 9.78 29.873 7.897 33.302-3.589-1.562-8.924-16.317-14.1-31.186-5.718-16.438-10.996-33.097-8.156-34.066z" fill="#F5F8FB"/><path d="M100.041 130.593c2.839-.97 8.84 15.446 14.359 31.95 4.991 14.934 9.78 29.873 7.897 33.302-3.589-1.562-8.924-16.317-14.1-31.186-5.718-16.438-10.996-33.097-8.156-34.066z" stroke="#0080FF"/><path d="M133.427 151.813l-20.385 6.827m20.446.937l-17.99 6.137" stroke="#0080FF" stroke-linecap="round" stroke-dasharray="4,4"/></g></svg>