<svg xmlns="http://www.w3.org/2000/svg" xmlns:xlink="http://www.w3.org/1999/xlink" version="1.1" x="0px" y="0px" viewBox="0 0 32 40" enable-background="new 0 0 32 32" xml:space="preserve" fill="#dcdcdc"><path d="M28.206,24.477c-0.464-0.394-0.998-0.688-1.565-0.885V18.19c0.438,0.064,0.877,0.124,1.325,0.16v-1.023  c-3.25-0.275-6.214-1.349-8.626-2.97V9.049c1.605,3.446,4.705,6.261,8.626,7.875v-1.074c-4.523-1.982-7.809-5.667-8.626-10.029V4  c0-0.276-0.224-0.5-0.5-0.5h-1.138c-0.276,0-0.5,0.224-0.5,0.5v1.782h-3.796c-0.096-0.52-0.16-1.047-0.184-1.584V4  c0-0.276-0.224-0.5-0.5-0.5h-2.097c-0.276,0-0.5,0.224-0.5,0.5v0.033c-0.123,4.219-2.536,7.966-6.242,10.416v1.175  c0.747-0.456,1.446-0.964,2.098-1.51v7.462c-0.865,0.346-1.662,0.861-2.346,1.532c-0.197,0.193-0.199,0.51-0.006,0.707  c0.194,0.197,0.511,0.199,0.707,0.006c1.15-1.13,2.673-1.753,4.287-1.753c2.345,0,4.473,1.352,5.494,3.452  c-0.646,0.55-1.175,1.246-1.52,2.063c-0.107,0.254,0.012,0.547,0.267,0.655c0.063,0.026,0.129,0.039,0.194,0.039  c0.194,0,0.38-0.114,0.461-0.306c0.715-1.69,2.362-2.782,4.198-2.782c1.534,0,2.957,0.766,3.805,2.048  c0.151,0.23,0.461,0.295,0.692,0.142c0.23-0.152,0.294-0.463,0.142-0.692c-0.157-0.238-0.336-0.456-0.524-0.664  c0.721-1.056,1.924-1.707,3.21-1.707c0.921,0,1.814,0.328,2.517,0.923c0.21,0.18,0.526,0.155,0.704-0.058  C28.442,24.971,28.417,24.654,28.206,24.477z M22.066,16.948v7.383c-0.371,0.284-0.697,0.625-0.977,1.009  c-0.525-0.403-1.117-0.706-1.751-0.899v-8.877C20.193,16.092,21.105,16.556,22.066,16.948z M13.222,8.651  c0.452,1.064,1.037,2.073,1.753,3.007h-1.753V8.651z M12.222,22.064c-0.349-0.205-0.716-0.378-1.097-0.521V4.5h1.097V22.064z   M13.222,13.797h3.745c0.381,0.34,0.782,0.663,1.199,0.971c-0.049,0.016-0.099,0.031-0.154,0.031h-0.811v5.157h-3.979V13.797z   M17.201,7.92v0.002h0.811c0.276,0,0.5,0.224,0.5,0.5s-0.224,0.5-0.5,0.5h-0.811v2.737H16.28c-0.973-1.131-1.747-2.387-2.273-3.739  H17.201z M6.981,21.266v-8.062c1.355-1.343,2.427-2.893,3.144-4.586v12.629c-0.489-0.106-0.988-0.179-1.501-0.179  C8.063,21.068,7.514,21.141,6.981,21.266z M13.222,22.763v-0.669h3.979v0.002h0.811c0.276,0,0.5,0.224,0.5,0.5s-0.224,0.5-0.5,0.5  h-0.811v1.132c-0.81,0.075-1.576,0.324-2.259,0.718C14.508,24.1,13.926,23.359,13.222,22.763z M23.066,23.743v-6.415  c0.827,0.285,1.69,0.508,2.574,0.683v5.357c-0.198-0.025-0.396-0.053-0.598-0.053C24.352,23.315,23.682,23.469,23.066,23.743z"/></svg>