<svg xmlns="http://www.w3.org/2000/svg" xmlns:xlink="http://www.w3.org/1999/xlink" version="1.1" x="0px" y="0px" viewBox="0 0 100 125" style="enable-background:new 0 0 100 100;" xml:space="preserve" fill="#dcdcdc"><path d="M2.4,54.8v9h95.5v-9.7h-1.2v0.9c0,0-0.6-0.1-1.1,0.4s-0.8,1.7-0.8,1.7l-0.5,1.2l-1.1-0.1L93,57l-0.6-0.4l-0.1-0.9h-1.7v-0.9  h-0.5v-1.1H89l-0.4-0.6h-0.7v-2.4c0,0-0.4-0.7-1.3-0.7s-2.8,0-2.8,0s-0.7,0.4-0.9,0.6s-0.1,3.8-0.1,3.8l-0.4-0.5l-1.4,0.1l-0.7,0.6  v-1.1L80,51.1l-0.3,0.1l-0.6,2.2l-0.1,0.7H78l0.1-0.8h-0.5l-0.1-5.1h-0.9v-2.8h-2.4h-0.5v-4.7h-1v-0.5L71,38.5l-1.4,1.9l-0.1,0.4  l-1.1,0.1v13.1h-1V44h-5.4v9.1l-0.4-0.4v-3h-1.8V35.9h-0.7v-0.6h-3.3v0.6h-0.8V41h-0.4v0.8l-0.5,0.5v5.2h-0.5v0.8H53v6.9h-0.6V56  h-0.6c0,0-1.2-11.9-1.1-14.1s0.8-7.8,1.1-7.9s0.4-0.6,0.4-0.6h1.4l0.1-0.5h-0.3l0.3-0.7c0,0,1.3,0.1,1.3,0s0-0.1,0-0.1l-1.1-0.4  l-0.5-1.1l-1.9-0.6l-0.3-1.4H50l-0.5-5l-0.4,4.9l-1.4,0.1l-0.1,1.6l-2.4,0.8l-0.1,0.7l-1.2,0.6l1.3,0.3l0.1,0.6l-0.4,0.2l1.8,0.4  c0,0,1.4,7.1,1.4,7.4c-0.7,0.1-4.1,0-4.1,0v4.1h-1.3V50h-1.6v0.9h-0.6V50h-3.2v-5.1h-0.6L36.6,44l-0.9-0.1l-0.4-0.8h-1.8L33.1,44  l-0.8,0.1v1.3H32l-0.1,0.4h-0.5L30.5,46l0.1,0.8l-1.3,0.1l0.1,1.7l-0.5-0.1v-2.1h-2.6h-0.9h-2v4.6h-0.9V38.5h-0.8V38h-1  c0,0,0.3-0.4,0-0.4s-1.3,0-1.3,0V39h-4v16.1h-1v-0.8h-0.6l-0.6-0.6l-0.6,0.6v0.8h-0.7v-1.8v-0.6L11,53.5h-0.5v1.9l-0.9,0.1V47H6.9  v-0.6H4.5V47H3.3v8.3L2.4,54.8z"/></svg>