<svg width="326" height="499" viewBox="0 0 326 499" xmlns="http://www.w3.org/2000/svg"><title>65559CFB-377A-49B3-A681-D9821A286D1F</title><g transform="translate(1 1)" fill="none" fill-rule="evenodd"><circle stroke="#0080FF" cx="255" cy="15" r="3"/><circle stroke="#0080FF" cx="245.5" cy="306.5" r="6.5"/><circle stroke="#0080FF" cx="313.5" cy="183.5" r="10.5"/><circle stroke="#0080FF" fill="#FFF" cx="280.5" cy="492.5" r="4.5"/><circle stroke="#0080FF" fill="#FFF" cx="3" cy="3" r="3"/><path d="M223.364 34.123c.353-2.876-1.122-4.94-3.048-7.404l-7.768-9.943c-1.925-2.465-3.57-4.395-6.447-4.748-2.876-.354-4.94 1.122-7.404 3.047l-9.943 7.769c-2.465 1.925-4.395 3.57-4.749 6.447-.353 2.876 1.123 4.94 3.048 7.404l7.768 9.943c1.926 2.464 3.571 4.395 6.447 4.748 2.877.353 4.94-1.122 7.405-3.047l9.943-7.769c2.464-1.925 4.395-3.57 4.748-6.447z" fill="#F3F6F9"/><path d="M221.364 31.123c.353-2.876-1.122-4.94-3.048-7.404l-7.768-9.943c-1.925-2.465-3.57-4.395-6.447-4.748-2.876-.354-4.94 1.122-7.404 3.047l-9.943 7.769c-2.465 1.925-4.395 3.57-4.749 6.447-.353 2.876 1.123 4.94 3.048 7.404l7.768 9.943c1.926 2.464 3.571 4.395 6.447 4.748 2.877.353 4.94-1.122 7.405-3.047l9.943-7.769c2.464-1.925 4.395-3.57 4.748-6.447z" stroke="#0080FF"/><circle fill="#FFCF64" cx="271" cy="100" r="5"/><ellipse fill="#FFCF64" cx="100" cy="12" rx="5" ry="5"/><ellipse fill="#FFCF64" cx="136" cy="355" rx="5" ry="5"/><path d="M115.808 140.64c-16.278-5.208-34.125 2.871-40.925 18.551-6.105 14.08-1.837 29.748 9.06 38.983l-4.798 13.185a4.835 4.835 0 0 0 2.89 6.197l.563.205a6.187 6.187 0 1 0 11.627 4.232l.562.204a4.835 4.835 0 0 0 6.197-2.89l4.8-13.184c13.635-.066 26.411-8.507 31.348-22.07 6.487-17.823-3.084-37.578-21.324-43.414z" fill="#FFCF64"/><path d="M115.112 137.046c-16.278-5.208-34.126 2.872-40.925 18.552-6.105 14.08-1.837 29.748 9.06 38.983l-4.798 13.185a4.835 4.835 0 0 0 2.89 6.197l.563.205a6.187 6.187 0 1 0 11.627 4.232l.562.204a4.835 4.835 0 0 0 6.197-2.89l4.8-13.184c13.635-.067 26.411-8.507 31.347-22.07 6.488-17.823-3.083-37.578-21.323-43.414zm-34.791 65.577l21.839 7.949m-35.984-55.846l-15.013-5.464m107.72 39.207l-15.012-5.464m-19.5-67.88l-5.464 15.012m-51.42 56.387l-14.478 6.752M156.9 144.83l-14.477 6.752m-19.997 54.938l6.752 14.479M80.732 117.107l6.751 14.478" stroke="#0080FF" stroke-linejoin="round"/><path fill="#FFF" d="M116.204 148.73l-24.142 16.811 13.166 6.621-10.605 15.369 25.534-15.78-12.407-6.518z"/></g></svg>