<svg width="316" height="521" viewBox="0 0 316 521" xmlns="http://www.w3.org/2000/svg"><title>E148E018-4678-4CE7-B343-12F2B5F8373C</title><g transform="translate(1 1)" fill="none" fill-rule="evenodd"><circle stroke="#0080FF" cx="30.5" cy="6.5" r="6.5"/><circle stroke="#0080FF" cx="241.5" cy="427.5" r="6.5"/><circle stroke="#0080FF" cx="6.5" cy="259.5" r="6.5"/><circle stroke="#0080FF" fill="#FFF" cx="87.5" cy="337.5" r="4.5"/><path d="M301.512 166.214c6.049 34.306-16.858 67.02-51.163 73.068-34.305 6.049-67.019-16.857-73.068-51.163-6.049-34.305 16.858-67.019 51.163-73.068 34.305-6.048 67.019 16.858 73.068 51.163z" fill="#F3F6F9"/><path d="M297.487 161.384c6.049 34.306-16.858 67.02-51.163 73.068-34.305 6.049-67.019-16.857-73.068-51.163-6.049-34.305 16.858-67.019 51.163-73.068 34.305-6.048 67.019 16.858 73.068 51.163z" stroke="#0080FF"/><path d="M281.573 164.19c-4.5-25.516-28.832-42.554-54.348-38.054-25.516 4.499-42.554 28.83-38.055 54.347 4.5 25.517 28.832 42.554 54.348 38.055 25.516-4.5 42.554-28.831 38.055-54.348z" stroke="#0080FF"/><path d="M264.633 167.177c-2.85-16.16-18.26-26.95-34.42-24.1-16.161 2.849-26.952 18.26-24.103 34.42 2.85 16.16 18.26 26.95 34.421 24.1 16.16-2.85 26.951-18.26 24.102-34.42z" stroke="#0080FF"/><path d="M251.52 172.56c-1.319-7.477-8.45-12.47-15.925-11.151-7.478 1.318-12.47 8.448-11.151 15.925 1.318 7.477 8.448 12.47 15.925 11.15 7.476-1.317 12.469-8.448 11.15-15.924z" fill="#FFCF64"/><path d="M248.91 169.95c-1.319-7.477-8.45-12.47-15.925-11.151-7.478 1.318-12.47 8.448-11.151 15.925 1.318 7.477 8.448 12.47 15.925 11.15 7.476-1.317 12.469-8.448 11.15-15.924z" stroke="#0080FF"/><path d="M232.886 158.816L221.32 93.225m27.906 158.259l-11.566-65.592m-15.844-11.267l-65.591 11.566m158.259-27.905l-65.592 11.565" stroke="#0080FF" stroke-linecap="round"/><circle stroke="#0080FF" fill="#FFF" cx="170" cy="53" r="3"/><path stroke="#0080FF" fill="#FFF" stroke-linejoin="round" d="M60.37 490.902l3.937 28.015L86.6 501.499z"/><path d="M46.011 154.54c1.744-2.314 1.498-4.839 1.063-7.936l-1.756-12.495c-.435-3.097-.895-5.592-3.209-7.336-2.314-1.744-4.839-1.498-7.936-1.062l-12.495 1.756c-3.097.435-5.592.895-7.336 3.209-1.744 2.314-1.498 4.839-1.063 7.936l1.756 12.495c.436 3.097.895 5.592 3.21 7.336 2.314 1.744 4.839 1.498 7.936 1.062l12.495-1.756c3.097-.435 5.591-.894 7.335-3.209z" fill="#F3F6F9"/><path d="M41.011 151.54c1.744-2.314 1.498-4.839 1.063-7.936l-1.756-12.495c-.435-3.097-.895-5.592-3.209-7.336-2.314-1.744-4.839-1.498-7.936-1.062l-12.495 1.756c-3.097.435-5.592.895-7.336 3.209-1.744 2.314-1.498 4.839-1.063 7.936l1.756 12.495c.436 3.097.895 5.592 3.21 7.336 2.314 1.744 4.839 1.498 7.936 1.062l12.495-1.756c3.097-.435 5.591-.894 7.335-3.209z" stroke="#0080FF"/><circle fill="#FFCF64" cx="119" cy="240" r="3"/><circle fill="#FFCF64" cx="262" cy="3" r="3"/><circle fill="#FFCF64" cx="75" cy="58" r="8"/></g></svg>