<svg width="318" height="475" viewBox="0 0 318 475" xmlns="http://www.w3.org/2000/svg"><title>60F9B7D8-489F-4EEE-8BAF-6EB4722357A9</title><g fill="none" fill-rule="evenodd"><path d="M170.457 199.962l28.158 5.985c15.122 3.215 29.988-6.438 33.203-21.562 3.214-15.122-6.44-29.987-21.563-33.202l-28.157-5.985-11.64 54.764z" fill="#F3F6F9"/><path d="M168.355 195.426l28.157 5.985c15.122 3.214 29.989-6.439 33.203-21.562 3.215-15.122-6.44-29.988-21.562-33.202l-28.158-5.985-11.64 54.764z" stroke="#0080FF"/><path d="M117.181 175.632c-8.79-1.869-14.401-10.509-12.533-19.3 1.869-8.79 10.509-14.4 19.3-12.532" fill="#F3F6F9"/><path stroke="#0080FF" d="M153.96 192.366l14.395 3.06 11.64-54.764-14.395-3.06zm-.001 0l-45.695 15.6 21.935-103.2 35.4 32.836m13.379 60.082l-9.539 23.562a4.19 4.19 0 0 0 3.015 5.673l9.54 2.028c1.884.4 3.8-.534 4.642-2.267l12.056-24.805"/><path d="M94.348 135.368l-17.353-13.672m10.617 27.407l-26.688-5.673m23.563 20.378l-19.345 6.752" stroke="#0080FF" stroke-linecap="round" stroke-dasharray="4"/><path d="M115.849 172.282c-8.791-1.869-14.402-10.509-12.533-19.3 1.868-8.79 10.508-14.4 19.299-12.532" stroke="#0080FF"/><path fill="#FFCF64" d="M153.849 283.727L143 291.61l12.25 5.455z"/><path d="M125.782 365.785c2.54-1.078 3.54-3.277 4.656-6.039l4.5-11.14c1.117-2.762 1.925-5.038.847-7.578s-3.277-3.54-6.039-4.656l-11.14-4.5c-2.762-1.117-5.038-1.925-7.578-.847s-3.54 3.277-4.656 6.039l-4.5 11.14c-1.117 2.762-1.925 5.038-.847 7.578s3.277 3.54 6.039 4.656l11.14 4.5c2.762 1.117 5.038 1.925 7.578.847zm182.524 30.439c4.65-7.74 3.066-15.484.709-24.94l-9.512-38.147c-2.357-9.456-4.594-17.037-12.333-21.687-7.74-4.65-15.483-3.066-24.939-.708l-38.148 9.51c-9.455 2.358-17.036 4.595-21.687 12.334-4.65 7.74-3.066 15.484-.708 24.939l9.511 38.148c2.358 9.456 4.594 17.037 12.334 21.687 7.74 4.65 15.483 3.066 24.938.708l38.148-9.51c9.456-2.358 17.037-4.595 21.687-12.334z" fill="#F3F6F9"/><path d="M123.782 360.785c2.54-1.078 3.54-3.277 4.656-6.039l4.5-11.14c1.117-2.762 1.925-5.038.847-7.578s-3.277-3.54-6.039-4.656l-11.14-4.5c-2.762-1.117-5.038-1.925-7.578-.847s-3.54 3.277-4.656 6.039l-4.5 11.14c-1.117 2.762-1.925 5.038-.847 7.578s3.277 3.54 6.039 4.656l11.14 4.5c2.762 1.117 5.038 1.925 7.578.847z" stroke="#0080FF" stroke-linecap="round" stroke-dasharray="6"/><path d="M312.306 387.224c4.65-7.74 3.066-15.484.709-24.94l-9.512-38.147c-2.357-9.456-4.594-17.037-12.333-21.687-7.74-4.65-15.483-3.066-24.939-.708l-38.148 9.51c-9.455 2.358-17.036 4.595-21.687 12.334-4.65 7.74-3.066 15.484-.708 24.939l9.511 38.148c2.358 9.456 4.594 17.037 12.334 21.687 7.74 4.65 15.483 3.066 24.938.708l38.148-9.51c9.456-2.358 17.037-4.595 21.687-12.334z" stroke="#0080FF" stroke-linecap="round"/><circle stroke="#0060FF" cx="40.5" cy="342.5" r="3.5"/><circle fill="#F3F6F9" cx="84.256" cy="23.5" r="8.5"/><circle stroke="#0060FF" cx="83.256" cy="20.5" r="8.5"/><circle fill="#F3F6F9" cx="142.5" cy="466.5" r="8.5"/><circle fill="#F3F6F9" cx="289" cy="16" r="16"/><ellipse fill="#FFCF64" cx="213.256" cy="81.5" rx="6.5" ry="6.5"/><ellipse fill="#FFCF64" cx="313.756" cy="151" rx="4" ry="4"/><ellipse fill="#FFCF64" cx="4" cy="438" rx="4" ry="4"/></g></svg>